<svg width="81" height="63" viewBox="0 0 81 63" fill="none" xmlns="http://www.w3.org/2000/svg">
<path fill-rule="evenodd" clip-rule="evenodd" d="M5.94868 1.76536V52.6302C5.94868 54.3023 7.66686 53.9693 9.29508 53.9689C12.9272 53.9678 21.2255 53.7611 23.8429 53.9776C30.5379 54.5313 33.368 55.4747 38.7433 58.3192C38.1555 60.5204 33.664 58.9912 31.1982 58.5021C27.7879 57.8252 21.5309 56.9945 17.9963 56.8127C13.2186 56.5666 8.11738 56.646 3.27164 56.646V8.45815C3.27164 6.66212 0.594604 6.66212 0.594604 8.45815V57.9843C0.594604 59.7225 2.54938 59.323 4.27549 59.323L11.8104 59.3174C12.7001 59.3442 13.0697 59.4988 14.145 59.4924C23.61 59.4383 35.1168 62.3346 36.9026 62.3346C38.7572 62.3346 39.6628 61.3901 40.7509 60.6617C44.3283 63.0568 44.4307 62.485 49.0187 61.5673C54.2503 60.5208 61.8305 59.4636 67.1884 59.4912C68.8234 59.4999 70.218 59.323 72.0394 59.323C73.7126 59.323 75.3858 59.323 77.059 59.323C78.8263 59.323 80.9073 59.7509 80.9073 57.9843V8.45815C80.9073 6.66212 78.2303 6.66212 78.2303 8.45815V56.646L63.6689 56.8081L44.5993 59.4905C43.609 59.4905 42.9676 59.1008 42.7586 58.3192C43.2817 58.0421 43.7576 57.8226 44.3011 57.5187C44.8646 57.2038 45.2675 57.0432 45.8801 56.7552C49.6502 54.9826 53.2287 54.3439 57.659 53.9776C60.2321 53.7645 68.4621 53.9682 72.0394 53.9689C76.4565 53.9693 75.5532 55.0253 75.5532 43.2604C75.5532 41.4644 72.8762 41.4644 72.8762 43.2604V51.2915H57.1481C53.9373 51.2915 48.3444 52.4734 45.3794 53.9123L42.0893 55.4747V21.5089C42.0897 19.7827 42.4892 17.828 40.7509 17.828C39.0437 17.828 39.4122 19.6592 39.4126 21.3414V55.4747L36.2337 53.9682C33.21 52.4893 27.9671 51.2915 24.3538 51.2915H8.6261V3.10407H28.7041C30.6384 3.10407 32.2119 3.5081 33.5559 4.10829C37.112 5.69682 39.0211 9.16076 39.3933 12.9947C39.625 15.3822 41.8999 15.1831 42.098 13.1516C42.6951 7.02419 46.6882 3.10407 52.7978 3.10407H72.8762V37.906C72.8762 39.702 75.5532 39.702 75.5532 37.906V1.76536C75.5532 0.955785 75.0241 0.426651 74.2149 0.426651H51.6265C48.3119 0.426651 44.6956 2.33947 42.7178 4.56901C42.2571 5.08832 41.073 6.62319 40.9184 7.28687H40.5835C40.2067 5.87484 37.9632 3.55875 36.539 2.63087C34.9108 1.57034 32.5089 0.426651 29.8754 0.426651H7.28739C6.47782 0.426651 5.94868 0.955785 5.94868 1.76536Z" fill="#4B4B4D"/>
<path fill-rule="evenodd" clip-rule="evenodd" d="M12.6415 24.5208C12.6415 26.3708 15.1794 25.8591 17.8285 25.8591C20.5743 25.8591 28.5707 25.7347 30.7065 26.0322C33.5967 26.4347 34.9331 27.8672 35.5639 27.8672C36.8331 27.8672 37.7863 26.1637 36.2329 25.1905C34.5045 24.108 32.2686 23.1821 29.8754 23.1821H13.9802C13.1706 23.1821 12.6415 23.7116 12.6415 24.5208Z" fill="#4B4B4D"/>
<path fill-rule="evenodd" clip-rule="evenodd" d="M45.7705 14.4816C46.4712 14.4816 47.3175 13.7593 47.946 13.4781C50.837 12.1848 53.6142 12.4739 56.9806 12.4739L66.8595 12.4807C69.9504 12.5022 69.0396 9.79686 67.5217 9.79686H51.6265C49.7061 9.79686 47.7026 10.4806 46.435 11.1307C45.8257 11.4428 44.7977 11.9232 44.5554 12.6137C44.2723 13.4214 44.9095 14.4816 45.7705 14.4816Z" fill="#4B4B4D"/>
<path fill-rule="evenodd" clip-rule="evenodd" d="M12.6415 11.1352C12.6415 12.9853 15.1794 12.4739 17.8285 12.4739C22.1776 12.4739 29.9974 11.9894 33.3208 13.3787C33.8926 13.618 35.1898 14.4816 35.5639 14.4816C36.4771 14.4816 37.2118 13.6425 36.9854 12.7377C36.7964 11.9845 35.9695 11.6141 35.1765 11.1881C33.8866 10.4953 31.7871 9.79686 29.8754 9.79686H13.9802C13.1706 9.79686 12.6415 10.326 12.6415 11.1352Z" fill="#4B4B4D"/>
<path fill-rule="evenodd" clip-rule="evenodd" d="M12.6415 31.2136C12.6415 33.0636 15.1794 32.5519 17.8285 32.5519C22.1776 32.5519 29.9974 32.0677 33.3208 33.4571C33.8926 33.6963 35.1898 34.5599 35.5639 34.5599C36.8331 34.5599 37.7863 32.8565 36.2329 31.8833C34.5045 30.8005 32.2686 29.8748 29.8754 29.8748H13.9802C13.1706 29.8748 12.6415 30.404 12.6415 31.2136Z" fill="#4B4B4D"/>
<path fill-rule="evenodd" clip-rule="evenodd" d="M12.6415 17.828C12.6415 19.678 15.1794 19.1667 17.8285 19.1667C22.1776 19.1667 29.9974 18.6821 33.3208 20.0715C33.8926 20.3107 35.1898 21.1744 35.5639 21.1744C36.8331 21.1744 37.7863 19.4709 36.2329 18.4977C34.5045 17.4149 32.2686 16.4893 29.8754 16.4893H13.9802C13.1706 16.4893 12.6415 17.0188 12.6415 17.828Z" fill="#4B4B4D"/>
<path fill-rule="evenodd" clip-rule="evenodd" d="M12.6415 44.5991C12.6415 46.4492 15.1794 45.9374 17.8285 45.9374C22.1776 45.9374 29.9974 45.4529 33.3208 46.8423C33.8926 47.0815 35.1898 47.9451 35.5639 47.9451C36.8331 47.9451 37.7863 46.2417 36.2329 45.2688C34.5045 44.186 32.2686 43.2604 29.8754 43.2604H13.9802C13.1706 43.2604 12.6415 43.7895 12.6415 44.5991Z" fill="#4B4B4D"/>
<path fill-rule="evenodd" clip-rule="evenodd" d="M12.6415 37.906C12.6415 39.7564 15.1794 39.2447 17.8285 39.2447C22.1776 39.2447 29.9974 38.7605 33.3208 40.1499C33.8926 40.3887 35.1898 41.2524 35.5639 41.2524C36.8331 41.2524 37.7863 39.5493 36.2329 38.5761C34.5045 37.4932 32.2686 36.5676 29.8754 36.5676H13.9802C13.1706 36.5676 12.6415 37.0968 12.6415 37.906Z" fill="#4B4B4D"/>
<path fill-rule="evenodd" clip-rule="evenodd" d="M45.7705 27.8672C46.4712 27.8672 47.3175 27.1449 47.946 26.8637C50.837 25.5703 53.6142 25.8591 56.9806 25.8591L66.8595 25.8663C69.9504 25.8878 69.0396 23.1821 67.5217 23.1821H51.6265C49.5406 23.1821 45.043 24.6096 44.5554 25.9993C44.2723 26.8066 44.9095 27.8672 45.7705 27.8672Z" fill="#4B4B4D"/>
<path fill-rule="evenodd" clip-rule="evenodd" d="M45.7705 34.5599C46.7475 34.5599 47.6996 33.2228 50.5006 32.7643C52.7634 32.3943 63.5264 32.536 66.8595 32.5591C69.9504 32.5806 69.0396 29.8748 67.5217 29.8748H51.6265C49.7061 29.8748 47.7026 30.5589 46.435 31.2086C45.8257 31.5208 44.7977 32.0016 44.5554 32.6921C44.2723 33.4994 44.9095 34.5599 45.7705 34.5599Z" fill="#4B4B4D"/>
<path fill-rule="evenodd" clip-rule="evenodd" d="M45.7705 41.2524C46.7475 41.2524 47.6996 39.9155 50.5006 39.4575C52.7634 39.0871 63.5264 39.2288 66.8595 39.2518C69.9504 39.273 69.0396 36.5676 67.5217 36.5676H51.6265C49.7061 36.5676 47.7026 37.2517 46.435 37.9014C45.8257 38.214 44.7977 38.694 44.5554 39.3849C44.2723 40.1926 44.9095 41.2524 45.7705 41.2524Z" fill="#4B4B4D"/>
<path fill-rule="evenodd" clip-rule="evenodd" d="M45.7705 21.1744C46.7475 21.1744 47.6996 19.8372 50.5006 19.3791C52.7634 19.0087 63.5264 19.1504 66.8595 19.1735C69.9504 19.195 69.0396 16.4893 67.5217 16.4893H51.6265C49.5406 16.4893 45.043 17.9168 44.5554 19.3065C44.2723 20.1142 44.9095 21.1744 45.7705 21.1744Z" fill="#4B4B4D"/>
<path fill-rule="evenodd" clip-rule="evenodd" d="M45.7705 47.9451C46.7475 47.9451 47.6996 46.6083 50.5006 46.1499C52.7634 45.7798 63.5264 45.9216 66.8595 45.9446C69.9504 45.9658 69.0396 43.2604 67.5217 43.2604H51.6265C49.5406 43.2604 45.043 44.6879 44.5554 46.0773C44.2723 46.885 44.9095 47.9451 45.7705 47.9451Z" fill="#4B4B4D"/>
</svg>
