<svg width="77" height="65" viewBox="0 0 77 65" fill="none" xmlns="http://www.w3.org/2000/svg">
<path fill-rule="evenodd" clip-rule="evenodd" d="M57.2975 61.6755V55.4336C59.2995 56.3944 62.5798 56.3933 64.5795 55.4336V61.527C63.6248 61.3047 61.7006 60.0409 61.0128 60.0409C60.501 60.0409 57.8134 61.4026 57.2975 61.6755ZM53.4329 46.3681C53.4329 38.2477 64.2329 36.0167 67.6545 42.847C68.712 44.9575 68.7616 47.5401 67.7025 49.6396L66.3483 51.5551C61.7755 56.3033 53.4329 53.0684 53.4329 46.3681ZM0.0799866 4.16094V52.1643C0.0799866 54.3977 2.02569 56.1767 4.24125 56.1767H55.0683V63.7562C55.0683 64.1764 55.6878 64.6477 56.1085 64.6477C56.808 64.6477 60.4564 62.5675 60.8642 62.5675C61.7505 62.5675 65.1128 64.6477 65.7686 64.6477C66.3536 64.6477 66.9576 64.1632 66.9576 63.4591V56.1767H71.713C74.1863 56.1767 76.1717 54.6033 76.1717 52.1643V4.16094C76.1717 2.18425 74.0684 0.445663 72.0104 0.445663H26.6822C25.7683 0.445663 25.1027 1.35653 25.5461 2.16232C26.0057 2.99722 27.1191 2.82488 28.3172 2.82374L72.5755 2.85284C73.3476 3.01158 73.9425 3.89788 73.9425 4.90399V51.7184C73.9425 54.4755 70.9919 53.799 67.4032 53.799C68.0238 52.8726 69.3081 52.2566 70.2488 49.6596C71.1309 47.2237 70.6664 46.0721 70.6725 43.2473C70.6793 40.2702 70.7783 11.7366 70.62 11.1988C70.2549 9.95609 67.3922 11.0729 66.3733 8.31199C66.2062 7.86034 66.3215 5.9445 65.174 5.9445H11.2262C9.08773 5.9445 11.2198 9.65221 7.22972 10.4191C6.38197 10.582 5.57882 10.517 5.57882 11.5919V45.179C5.57882 46.7789 9.67772 45.2969 10.0349 49.1944C10.118 50.1026 10.4181 50.6782 11.3747 50.6782H36.0452C37.3435 50.6782 38.3617 48.2692 35.1574 48.2964L12.2663 48.2998C11.9915 47.119 11.4911 46.2664 10.7477 45.5093C10.1075 44.8578 9.00345 44.0168 7.80799 43.9904V12.6324C8.92521 12.6074 10.0519 11.7846 10.6744 11.1886C11.428 10.4663 11.9995 9.46966 12.2663 8.3222H63.9854C64.2439 9.433 64.7915 10.407 65.5025 11.1149C66.1227 11.7325 67.2959 12.6067 68.4437 12.6324V39.8291C67.2857 39.0535 65.5459 36.4109 61.0128 36.4109C55.7936 36.4109 51.2041 40.8927 51.2041 45.4768C51.2041 46.7853 51.0972 47.2033 51.3527 48.2998L41.5403 48.2967C38.4683 48.2748 39.3712 50.3683 40.2635 50.6212C40.8414 50.7848 51.3856 50.6782 52.2446 50.6782C52.5001 51.7762 54.063 53.1856 54.4738 53.799H7.06493C4.59047 53.799 2.30915 54.2862 2.30915 51.7184V4.90399C2.30915 2.25908 4.82518 2.82336 6.17296 2.82336L21.3383 2.82979C24.1287 2.84869 23.5153 0.445663 22.0753 0.445663H4.24125C2.18329 0.445663 0.0799866 2.18425 0.0799866 4.16094Z" fill="#FEFEFE"/>
<path fill-rule="evenodd" clip-rule="evenodd" d="M13.3068 24.5216C13.3068 25.2405 13.777 25.7103 14.4959 25.7103H61.7558C63.4774 25.7103 63.2038 23.3326 61.6073 23.3326H14.6444C13.9818 23.3326 13.3068 23.9343 13.3068 24.5216Z" fill="#FEFEFE"/>
<path fill-rule="evenodd" clip-rule="evenodd" d="M13.3068 31.9522C13.3068 32.8646 14.0144 33.2898 14.9418 33.2898H61.3098C63.5042 33.2898 63.3315 30.9121 61.7558 30.9121H14.4959C13.8598 30.9121 13.3068 31.3701 13.3068 31.9522Z" fill="#FEFEFE"/>
<path fill-rule="evenodd" clip-rule="evenodd" d="M60.8642 43.0984C64.0417 43.0984 65.1026 46.7876 63.2113 48.5666C61.1477 50.5082 58.0349 49.1679 57.8047 46.4667C57.6607 44.7761 59.1979 43.0984 60.8642 43.0984ZM55.5139 45.9225V46.6655C55.5139 50.8234 61.2985 53.7635 64.8456 50.2009C68.6104 46.4206 65.3271 40.8692 61.4588 40.8692H60.5668C58.0103 40.8692 55.5139 43.4265 55.5139 45.9225Z" fill="#FEFEFE"/>
<path fill-rule="evenodd" clip-rule="evenodd" d="M13.3068 39.5316C13.3068 40.2509 13.777 40.7207 14.4959 40.7207H36.3423C37.5268 40.7207 37.5268 38.4915 36.3423 38.4915H14.1988C13.7785 38.4915 13.3068 39.1114 13.3068 39.5316Z" fill="#FEFEFE"/>
<path fill-rule="evenodd" clip-rule="evenodd" d="M27.5742 16.7936C27.5742 17.3692 27.7703 18.1308 28.4657 18.1308H47.7859C48.9704 18.1308 48.9704 15.9017 47.7859 15.9017H28.4657C28.1078 15.9017 27.5742 16.4357 27.5742 16.7936Z" fill="#FEFEFE"/>
</svg>
