<?xml version="1.0" encoding="UTF-8"?>
<!DOCTYPE svg PUBLIC "-//W3C//DTD SVG 1.1//EN" "http://www.w3.org/Graphics/SVG/1.1/DTD/svg11.dtd">
<!-- Creator: CorelDRAW -->
<svg xmlns="http://www.w3.org/2000/svg" xml:space="preserve" width="42.3332mm" height="42.3332mm" version="1.1" shape-rendering="geometricPrecision" text-rendering="geometricPrecision" image-rendering="optimizeQuality" fill-rule="evenodd" clip-rule="evenodd"
viewBox="0 0 4233320 4233320"
 xmlns:xlink="http://www.w3.org/1999/xlink"
 xmlns:xodm="http://www.corel.com/coreldraw/odm/2003">
 <g id="Camada_x0020_1">
  <metadata id="CorelCorpID_0Corel-Layer"/>
  <path fill="#ffffff" d="M397400 3402750l403800 0 0 -768620 168570 670490c5030,23910 21390,74230 21390,98130l356000 0c-1260,-22640 -13840,-62900 -20130,-86800 -7550,-32710 -13840,-57870 -22640,-89320l-132090 -528350c-30190,-119510 -59120,-232720 -88060,-350970l-77990 -309460c-3780,-16350 -2520,-37740 -18870,-37740l-589980 0 0 1402640z"/>
  <path fill="#ffffff" d="M3188790 3402750l394990 0c16360,0 22650,-45290 32720,-78000 8800,-32700 16350,-59120 25150,-90570 16360,-57870 32710,-115740 50320,-176120 17610,-61640 299390,-1030270 299390,-1057950l-389960 0c-17620,0 -23900,55350 -32700,88060l-123290 496900c-8800,32700 -47800,178630 -49060,200010l-8800 0c0,-21380 -37740,-163540 -46550,-196240 -17610,-67930 -33960,-134600 -50320,-198760l-74210 -298140c-7550,-32710 -15100,-91830 -32710,-91830l-389970 0c0,23900 15100,65420 21390,88060l75480 262910c16350,56610 296870,1023990 298130,1051670z"/>
  <path fill="#ffffff" d="M1235200 2639160c0,20120 13840,64150 20130,86800 7550,31450 13840,56610 21380,89320l132090 524570c15090,-17610 85540,-327070 91830,-347200 7550,-33970 80510,-338390 90570,-353490 0,259140 3780,505700 3780,763590l403800 0 0 -1388800c0,-11320 -2520,-13840 -12580,-13840l-582430 0c-16350,0 -18870,35220 -27680,70450 -6280,25150 -13830,55350 -20120,81760 -13840,55350 -26420,108190 -40260,162280 -13830,54090 -26410,106930 -40250,159760l-40260 164800z"/>
  <path fill="#ffffff" d="M1196210 637720c11330,-16350 183660,-91830 223920,-113220l114470 -54090c148440,-74220 311980,-147180 461670,-221400 169830,-85540 254110,-30190 418900,52830l230200 110710c21390,10060 36490,16350 57870,26410 20130,10070 35220,18870 56610,28940 46540,21380 332100,153470 344680,169820 -11320,15100 -106930,55350 -138380,70450 -47800,23900 -94340,45290 -143400,70450l-286820 134600c2520,27680 124540,196240 133340,230210 -33960,0 -44020,-5040 -67920,-16350 -69190,-30200 -182410,-96870 -235240,-111970 -66680,-18870 -62900,52840 -233980,52840 -41510,0 -67930,-10070 -99380,-25160 -11320,-5030 -18870,-7550 -31450,-12580l-748480 -361040c-18870,-7550 -46540,-17610 -56610,-31450zm-120760 0l0 389970 -35220 0 0 200030 119510 0 0 -200030 -39000 0 0 -293100c36480,25150 127050,64150 179880,90570 192470,96860 423940,197500 615140,294370 115730,59120 213850,93090 350970,52830 116990,-35220 28930,-61640 223920,35230 55340,27670 96860,51570 169820,51570 80510,0 169820,-81770 84280,-208820 -11320,-17620 -40250,-65420 -44030,-84290 20130,-1250 52840,-22640 70450,-31440l212590 -101900c35220,-17610 178630,-79250 207560,-108190 46550,-46540 57870,-158500 -52830,-210080l-201270 -95600c-168570,-85550 -364810,-171090 -534630,-256630 -123280,-61640 -149700,-75480 -284290,-75480 -108190,0 -309460,127050 -421420,172340 -60380,25160 -361030,172350 -405060,194990l-134600 65410c-26420,11330 -35220,18870 -55350,41520 -15100,16350 -26420,46540 -26420,76730z"/>
  <path fill="#ffffff" d="M2305730 3078190c-169830,0 -179890,-31450 -231470,-35220l1260 354750c5030,13830 12580,10060 56600,13830 218890,18870 473000,27680 622690,-158500 144660,-179890 123280,-435260 123280,-666730 0,-28930 -70440,-259140 -80510,-293100 -18870,-70450 -69180,-227690 -84280,-293110l-226430 0c-22650,1260 -17610,6290 -17610,30190l0 840320c0,49070 -18870,117000 -41510,144670 -25170,31450 -67940,62900 -122020,62900z"/>
  <path fill="#ffffff" d="M1289310 1205080c0,118250 45280,184930 122020,228950 18870,10070 37730,16360 57860,26420l416380 200020c133350,54090 231470,148440 432740,46540 47800,-23900 95610,-45280 143400,-69180l216370 -104410c23910,-11330 50320,-22650 75480,-35230 22640,-11320 47800,-25160 70450,-35220 75470,-32710 139630,-60380 173590,-150960 26420,-74220 13840,-311980 13840,-417650 -22640,2520 -100640,42770 -120760,54100 0,59120 0,118250 0,177370 0,56610 7540,125800 -15100,162280 -23900,40250 -64150,47800 -106930,70450 -155980,77990 -323290,152210 -479270,230210 -41510,21380 -91840,42770 -139640,42770 -77990,0 -181140,-69190 -252850,-98120l-299380 -144670c-49070,-25160 -142150,-56610 -169830,-95610 -22650,-33960 -15100,-106930 -15100,-163530 0,-59130 0,-118250 0,-177380 -20120,-13840 -99370,-56610 -123270,-57870l0 310720z"/>
  <path fill="#ffffff" d="M1647810 4170120c0,10070 3780,13840 13840,13840l128310 0 0 -213860 155990 0 0 200020c0,10070 2520,13840 12580,13840l129570 0 0 -545960 -142150 0 0 203790 -155990 0 0 -203790 -142150 0 0 532120z"/>
  <path fill="#ffffff" d="M2451640 3987710c0,-60390 -10070,-172350 17610,-208830 25160,-32710 128310,-41510 128310,59120 0,57870 10060,164800 -15100,201280 -27670,40260 -130820,39000 -130820,-51570zm-145920 -137130c0,98130 -11330,201280 49050,274240 96870,115740 389970,100640 389970,-149690 0,-123290 17610,-279280 -128310,-333370 -18870,-6290 -69190,-17610 -93090,-17610 -130830,3770 -217620,88060 -217620,226430z"/>
  <path fill="#ffffff" d="M3174950 4063190c-49060,0 -79250,-22640 -79250,-84280 0,-127060 -22640,-221400 79250,-221400 61640,0 66670,55350 66670,98120 0,51580 28930,207560 -66670,207560zm-226430 -212590c0,100640 -11330,193720 50320,272980 67930,86800 244040,93090 323290,16350 69190,-65410 61640,-129570 65410,-200020 3780,-62900 0,-32700 0,-80510 2520,-284300 -311970,-276750 -398770,-149700 -23900,35230 -40250,83030 -40250,140900z"/>
  <path fill="#ffffff" d="M694280 4019160c0,70450 -113220,50320 -155990,31460 -25160,-11330 -40250,-26430 -61640,-40260 -11320,10060 -79250,88060 -79250,98120 0,17610 62900,50320 79250,56610 79250,30190 94350,27670 173600,27670 93090,0 189950,-67930 189950,-159760 0,-83020 -10060,-132090 -100640,-169820 -28930,-12580 -56600,-17610 -93090,-22650 -46540,-6290 -80500,-8800 -80500,-47800 0,-61640 99380,-37740 132080,-25160 18870,6290 36480,21380 54090,25160 11320,-8800 25160,-35220 35220,-49060 16360,-21390 30200,-33970 31460,-56610l-46550 -25160c-46540,-23900 -119500,-41510 -172340,-33970 -72960,8810 -142150,27680 -172340,110710 -27670,72960 -6290,154730 61640,197500 89320,56610 205050,20120 205050,83020z"/>
  <path fill="#ffffff" d="M1036450 3841790c0,115730 -18870,266690 105670,328330 90570,45280 220140,26420 280520,-57870 13840,-18860 16360,-31450 26420,-52830l-108190 -47800c-45280,-13840 -1250,51570 -100630,51570 -39000,0 -57860,-39000 -57860,-79250l0 -145930c0,-95600 96860,-104410 130820,-42770 8800,13840 7550,21390 30190,12580 119510,-47800 111960,-42770 86800,-85540 -81760,-143410 -323290,-118250 -372350,21390 -10070,25160 -21390,62900 -21390,98120z"/>
  <path fill="#ffffff" d="M3605190 4183960l373610 0c22640,0 12580,-50320 12580,-115740 0,-10060 -2520,-13830 -12580,-13830l-231470 0 0 -416390 -142140 0 0 545960z"/>
 </g>
</svg>
