<?xml version="1.0" encoding="UTF-8"?>
<!DOCTYPE svg PUBLIC "-//W3C//DTD SVG 1.1//EN" "http://www.w3.org/Graphics/SVG/1.1/DTD/svg11.dtd">
<!-- Creator: CorelDRAW -->
<svg xmlns="http://www.w3.org/2000/svg" xml:space="preserve" width="169.333mm" height="127mm" version="1.1" shape-rendering="geometricPrecision" text-rendering="geometricPrecision" image-rendering="optimizeQuality" fill-rule="evenodd" clip-rule="evenodd"
viewBox="0 0 16933320 12700000"
 xmlns:xlink="http://www.w3.org/1999/xlink"
 xmlns:xodm="http://www.corel.com/coreldraw/odm/2003">
 <g id="OBJECTS">
  <metadata id="CorelCorpID_0Corel-Layer"/>
  <g id="_1612920039936">
   <g>
    <g>
     <g>
      <path fill="#E2E4E4" fill-rule="nonzero" fill-opacity="0.949020" d="M7870740 2139370l0 3492560c0,148600 -120420,269020 -269020,269020l-5694080 0c-148600,0 -269010,-120420 -269010,-269020l0 -3492560c0,-148600 120410,-269020 269010,-269020l5694080 0c148600,0 269020,120420 269020,269020z"/>
     </g>
     <g>
      <path fill="#006790" fill-rule="nonzero" fill-opacity="0.949020" d="M7870740 2139370l0 278330 -6232110 0 0 -278330c0,-148600 120410,-269020 269010,-269020l5694080 0c148600,0 269020,120420 269020,269020z"/>
      <g>
       <path fill="#00AA80" fill-rule="nonzero" fill-opacity="0.949020" d="M2869790 2144030c0,84710 -68670,153390 -153380,153390 -84720,0 -153390,-68680 -153390,-153390 0,-84710 68670,-153400 153390,-153400 84710,0 153380,68690 153380,153400z"/>
       <path fill="#FDBA3B" fill-rule="nonzero" fill-opacity="0.949020" d="M2469750 2144030c0,84710 -68680,153390 -153400,153390 -84710,0 -153380,-68680 -153380,-153390 0,-84710 68670,-153400 153380,-153400 84720,0 153400,68690 153400,153400z"/>
       <path fill="#EB496E" fill-rule="nonzero" fill-opacity="0.949020" d="M2059430 2144030c0,84710 -68670,153390 -153380,153390 -84720,0 -153390,-68680 -153390,-153390 0,-84710 68670,-153400 153390,-153400 84710,0 153380,68690 153380,153400z"/>
      </g>
     </g>
    </g>
    <g>
     <path fill="#FDBA3B" fill-rule="nonzero" fill-opacity="0.949020" d="M3922260 3233280l0 201410 1816170 0 0 -201410 -1816170 0z"/>
     <path fill="white" fill-rule="nonzero" fill-opacity="0.949020" d="M7363090 3233280l-1387130 0 0 201410 1387130 0 0 -201410z"/>
     <path fill="#006790" fill-rule="nonzero" fill-opacity="0.949020" d="M2279290 3788850l3113920 0 0 -201410 -3113920 0 0 201410z"/>
     <path fill="#006790" fill-rule="nonzero" fill-opacity="0.949020" d="M3126290 2957740l3113920 0 0 -201410 -3113920 0 0 201410z"/>
     <path fill="#FDBA3B" fill-rule="nonzero" fill-opacity="0.949020" d="M5637370 3587440l0 201410 756880 0 0 -201410 -756880 0z"/>
     <path fill="white" fill-rule="nonzero" fill-opacity="0.949020" d="M7363090 3587440l-731320 0 0 201410 731320 0 0 -201410z"/>
     <path fill="white" fill-rule="nonzero" fill-opacity="0.949020" d="M7363090 2756330l-890140 0 0 201410 890140 0 0 -201410z"/>
     <path fill="#006790" fill-rule="nonzero" fill-opacity="0.949020" d="M2279290 4143020l1642970 0 0 -201410 -1642970 0 0 201410z"/>
     <path fill="#FDBA3B" fill-rule="nonzero" fill-opacity="0.949020" d="M4166420 3941610l0 201410 2227830 0 0 -201410 -2227830 0z"/>
     <path fill="#FDBA3B" fill-rule="nonzero" fill-opacity="0.949020" d="M2913680 4497180l1008580 0 0 -201410 -1008580 0 0 201410z"/>
     <path fill="white" fill-rule="nonzero" fill-opacity="0.949020" d="M7363090 4295770l-3203300 0 0 201410 3203300 0 0 -201410z"/>
     <path fill="#006790" fill-rule="nonzero" fill-opacity="0.949020" d="M2279290 4851340l1398800 0 0 -201410 -1398800 0 0 201410z"/>
     <path fill="#FDBA3B" fill-rule="nonzero" fill-opacity="0.949020" d="M3922260 4649930l0 201410 2471990 0 0 -201410 -2471990 0z"/>
     <path fill="white" fill-rule="nonzero" fill-opacity="0.949020" d="M7363090 4649930l-731320 0 0 201410 731320 0 0 -201410z"/>
     <path fill="#006790" fill-rule="nonzero" fill-opacity="0.949020" d="M2279290 5205500l2342370 0 0 -201410 -2342370 0 0 201410z"/>
     <path fill="#FDBA3B" fill-rule="nonzero" fill-opacity="0.949020" d="M4865830 5004090l0 201410 872600 0 0 -201410 -872600 0z"/>
     <path fill="white" fill-rule="nonzero" fill-opacity="0.949020" d="M7363090 5004090l-1387130 0 0 201410 1387130 0 0 -201410z"/>
     <path fill="#FDBA3B" fill-rule="nonzero" fill-opacity="0.949020" d="M3303910 5358260l0 201410 3090340 0 0 -201410 -3090340 0z"/>
     <path fill="white" fill-rule="nonzero" fill-opacity="0.949020" d="M7363090 5358260l-731320 0 0 201410 731320 0 0 -201410z"/>
    </g>
    <path fill="#0087BA" fill-rule="nonzero" fill-opacity="0.949020" d="M2524920 2978730l-203060 -74960 0 -63430 203060 -74960 0 60130 -180000 63840 0 -34600 180000 63840 0 60140zm8640 78670l135920 -387990 69610 0 -135920 387990 -69610 0zm210060 -78670l0 -60140 180400 -63840 0 34600 -180400 -63840 0 -60130 203060 74960 0 63430 -203060 74960z"/>
   </g>
  </g>
  <g id="_1576515788144">
   <g>
    <g>
     <g>
      <path fill="#EFB3A5" fill-rule="nonzero" fill-opacity="0.949020" d="M1842170 9266570c1340,10820 2280,21510 2800,32020 10,240 50,490 60,740 10,240 0,480 10,740 6950,151630 -74670,267170 -340510,219630 -31490,-5640 -59360,-22440 -84290,-46700l-80 60c0,0 -152420,-148530 -240180,-320980 -53440,-105000 -40340,-155120 -42530,-161790 -18700,-26340 -34830,-45680 -46810,-54560 -21890,-16220 -48130,-21030 -48130,-21030 0,0 -8830,31300 16690,81590 25510,50270 -54900,125950 -113130,-2850 -48510,-107300 -33000,-176520 22540,-199460 -13930,-610 -28030,-610 -42290,260 -193370,11880 -185420,-148400 15470,-148320 22180,10 45020,940 68150,2630 -1630,-3970 -2850,-7750 -3680,-11330 -12480,-2350 -25120,-4110 -37880,-5130 -196390,-15800 -146120,-175240 45030,-142000 52540,9140 107600,24780 161010,44310 -20510,-15050 -41220,-28520 -61680,-39510 -142160,-76360 -87500,-210420 52860,-145170 140370,65230 339200,225480 441630,356470 96560,123470 213600,376840 234940,560380z"/>
      <path fill="none" fill-rule="nonzero" fill-opacity="0.949020" stroke="#D17980" stroke-width="50800" stroke-miterlimit="10" stroke-opacity="0.949020" d="M1219350 8569440c144330,128110 178140,206300 178140,206300"/>
      <path fill="none" fill-rule="nonzero" fill-opacity="0.949020" stroke="#D17980" stroke-width="50800" stroke-miterlimit="10" stroke-opacity="0.949020" d="M1022800 8846390c0,0 54190,9870 108280,77390"/>
     </g>
     <g>
      <path fill="none" fill-rule="nonzero" fill-opacity="0.949020" stroke="#D17980" stroke-width="50800" stroke-miterlimit="10" stroke-opacity="0.949020" d="M1255910 9073180c-46470,-85560 -51290,-166900 -90660,-222990 -52460,-74780 -177340,-189060 -158330,-232830 36840,-84780 120510,-33090 210980,42720 90470,75810 252050,175170 323610,141110"/>
     </g>
    </g>
    <g>
     <path fill="#EDB1A3" fill-rule="nonzero" fill-opacity="0.949020" d="M4967380 8904640l-270 270c-27230,80320 -61070,168350 -103430,263240 -100950,226650 -249200,492350 -467050,782540 -84440,111950 -178510,227210 -284410,345750 -4950,5500 -10180,11280 -15130,16790 -48690,53630 -99840,108080 -153480,163100 -45660,47310 -95180,84720 -148540,113060l-459890 -539960c0,0 28600,-54180 77010,-144670 14030,-26400 29980,-55850 47310,-88030 21450,-39870 45380,-83620 70690,-130650 6610,-12360 13210,-25020 20360,-37670 16220,-30540 33280,-62170 50890,-94900 263780,-485210 649680,-1178080 802060,-1365110 280,-550 840,-830 1100,-1100 16510,-15140 32470,-29170 47600,-42360l257450 99580 138630 53620c12930,18980 25860,39610 38230,60790 32730,113860 72340,299260 80870,545710z"/>
     <path fill="#EDB1A3" fill-rule="nonzero" fill-opacity="0.949020" d="M4058850 10317620c-34380,62170 -72880,114710 -115240,158710 -45660,47310 -95180,84720 -148540,113060 -779240,416160 -2309940,-1075770 -2309940,-1075770l242590 -281390 1731780 584500 79490 26960 519860 473930z"/>
     <path fill="#7E62E0" fill-rule="nonzero" d="M8041460 11721260l-3354090 54180 -234350 -3420080c-22280,-157340 9080,-246740 157060,-304770 123780,-48690 312740,-122390 545710,-176040 48970,-11000 99580,-21470 152110,-30520 131210,-22840 273140,-37430 423050,-37430l462370 -31890c0,0 163110,3300 383440,23930 88290,7960 186210,18690 286610,33280 102330,14860 207120,33280 307240,56650 214000,50070 352350,257190 317970,474220l552880 3358470z"/>
     <path fill="#48406B" fill-rule="nonzero" d="M6863370 7831920c-1757910,1032290 -1746360,277810 -1707580,42630 48970,-11000 99580,-21470 152110,-30520 131210,-22840 273140,-37430 423050,-37430l462370 -31890c0,0 163110,3300 383440,23930 88290,7960 186210,18690 286610,33280z"/>
     <path fill="#EFB3A5" fill-rule="nonzero" fill-opacity="0.949020" d="M6576760 7798640c-1525490,929410 -1268860,45390 -1268860,45390 131210,-22840 273140,-37430 423050,-37430l462370 -31890c0,0 163110,3300 383440,23930z"/>
     <g>
      <g>
       <path fill="#33314F" fill-rule="nonzero" fill-opacity="0.949020" d="M4630660 6510910c0,0 -274020,4010 -246640,-223830 27390,-227850 277440,-231720 277440,-231720l-30800 455550z"/>
       <path fill="#33314F" fill-rule="nonzero" fill-opacity="0.949020" d="M6412450 5830660c-74190,-70760 -174110,-99220 -272350,-91060 -43750,-350550 -585880,-375780 -862320,-341590 1860,-5460 3540,-10770 5600,-16490 1600,-2690 2970,-5690 3770,-9280 21230,-94100 34250,-221770 -26050,-305430 -53160,-73770 -153450,-100160 -237480,-88990 -184100,24460 -255960,187090 -275330,354220 -93800,-106180 -299670,-117060 -385710,14320 -118570,181080 7450,342560 112750,487130 -101100,14390 -285320,76350 -242680,203430 48280,143960 303090,85650 406550,59560 3750,-940 6770,-2510 9360,-4360 20410,6670 46800,-10450 36120,-36420 -41020,-99530 393880,-131120 451470,-135870 150290,-12430 301490,-25930 452300,-30040 145060,-3940 282800,15060 372720,147470 88380,130080 154610,282210 227950,421750 530,1000 1150,1750 1720,2640 8670,105930 -1470,208060 -30820,310340 -7780,27120 24630,41910 44050,30560 239800,-139980 335200,-361340 316670,-641970 -8030,-121560 -16730,-242590 -108290,-329920z"/>
      </g>
      <g>
       <g>
        <path fill="#EFB3A5" fill-rule="nonzero" fill-opacity="0.949020" d="M6249050 7891670c-580900,153650 -920010,286900 -838480,58020l17890 -88670 4550 -23020 49810 -247720 48050 -237910 23490 -115410 619520 -54760 33130 312010 13710 128530 28330 268930z"/>
       </g>
       <path fill="#D17980" fill-rule="nonzero" fill-opacity="0.949020" d="M6220720 7622740c-77820,30650 -644250,251490 -792260,238280l4550 -23020 49810 -247720 696420 -353870 41480 386330z"/>
      </g>
      <g>
       <g>
        <path fill="#EDB1A3" fill-rule="nonzero" fill-opacity="0.949020" d="M4607820 6525850c1610,24010 3190,47500 5330,72050 1070,14960 2670,29890 4280,44860 10140,96630 25090,184710 43770,263720 22960,97700 52320,182570 85950,256780 27230,59760 57660,112630 90750,159080 211410,300550 520500,333100 725500,313900 236490,-21900 596840,-137740 714280,-616590 35760,-143070 49110,-319230 30970,-534910 -1600,-22440 -3740,-44310 -6410,-66210 -2140,-24000 -5340,-47520 -8540,-70450 -72600,-526390 -313370,-925160 -932090,-867500 -626200,58730 -785290,506090 -753790,1045270z"/>
       </g>
      </g>
      <g>
       <path fill="#33314F" fill-rule="nonzero" fill-opacity="0.949020" d="M5898120 6055360c0,0 -72050,622950 130570,757020 0,0 221190,147780 268040,-442060l-398610 -314960z"/>
       <path fill="#33314F" fill-rule="nonzero" fill-opacity="0.949020" d="M5970070 6298240c0,0 -361940,70190 -392830,-231280 0,0 -216520,216180 -451310,8580 0,0 -47690,191440 -342210,149250 0,0 65990,253350 -176770,285100l-66770 -135530 34900 -298170 86380 -203640 208610 -259710 221140 -106480 280310 -46760 233920 0 280240 62340 205530 189590 169190 223360 47020 433730 -45510 37370 -291840 -107750z"/>
      </g>
      <g>
       <g>
        <path fill="#EFB3A5" fill-rule="nonzero" fill-opacity="0.949020" d="M6049240 6650390c970,54320 12030,110280 26030,161990 6180,23440 13000,45880 19510,66710 330,310 330,640 330,640 970,3250 1960,6180 2920,9420 1630,5210 3910,10110 6830,13990 3580,6190 8780,11070 14320,14650 49440,60820 138250,75150 217290,45860 24400,-8770 48150,-22110 69290,-39680 71570,-58880 118090,-133690 133370,-214370 12370,-67010 3900,-137930 -29920,-206900 -12690,-25690 -27330,-47800 -43920,-66020 -21800,-24400 -46840,-41970 -73840,-53020 -15290,-6840 -31560,-11070 -48140,-13340 -62130,-8470 -131430,11700 -197780,57260 -23090,15930 -41640,34470 -55620,55280 -32540,47830 -42950,106690 -40670,167530z"/>
       </g>
       <path fill="none" fill-rule="nonzero" fill-opacity="0.949020" stroke="#D17980" stroke-width="52350" stroke-miterlimit="10" stroke-opacity="0.949020" d="M6215660 6843810c0,0 -118170,-385140 187730,-286360"/>
       <path fill="none" fill-rule="nonzero" fill-opacity="0.949020" stroke="#D17980" stroke-width="52350" stroke-miterlimit="10" stroke-opacity="0.949020" d="M6194330 6725710l132130 -59920"/>
      </g>
      <g>
       <g>
        <g>
         <path fill="none" fill-rule="nonzero" fill-opacity="0.949020" stroke="#D17980" stroke-width="52350" stroke-miterlimit="10" stroke-opacity="0.949020" d="M5278650 7079300l-305430 29790"/>
         <path fill="none" fill-rule="nonzero" fill-opacity="0.949020" stroke="#D17980" stroke-width="52350" stroke-miterlimit="10" stroke-opacity="0.949020" d="M4973220 7109090c248250,-41740 178740,-417050 178740,-417050"/>
         <g>
          <g>
           <path fill="#D17980" fill-rule="nonzero" fill-opacity="0.949020" d="M5562310 7365830c33270,49940 -178560,110300 -202760,61370 -24200,-48920 168340,-113040 202760,-61370z"/>
          </g>
          <path fill="none" fill-rule="nonzero" fill-opacity="0.949020" stroke="#D17980" stroke-width="52350" stroke-miterlimit="10" stroke-opacity="0.949020" d="M5660980 7064830c-70280,167280 -269860,229410 -465040,210340"/>
         </g>
        </g>
        <g>
         <g>
          <g>
           <g>
            <g>
             <path fill="#33314F" fill-rule="nonzero" fill-opacity="0.949020" d="M4794840 6718850c5810,56950 42250,99870 81390,95870 39150,-3990 66170,-53390 60350,-110330 -5800,-56950 -42240,-99880 -81390,-95890 -39140,4000 -66160,53400 -60350,110350z"/>
            </g>
           </g>
          </g>
          <g>
           <g>
            <g>
             <path fill="#33314F" fill-rule="nonzero" fill-opacity="0.949020" d="M5457880 6651200c5800,56950 42240,99880 81390,95890 39140,-4000 66160,-53400 60350,-110350 -5810,-56940 -42250,-99870 -81390,-95880 -39150,4000 -66170,53400 -60350,110340z"/>
            </g>
           </g>
          </g>
         </g>
         <g>
          <path fill="#33314F" fill-rule="nonzero" fill-opacity="0.949020" d="M5421190 6521820c206480,11480 322920,-45810 144910,-70320 -178010,-24510 -251920,64380 -144910,70320z"/>
          <path fill="#33314F" fill-rule="nonzero" fill-opacity="0.949020" d="M4921810 6478880c-182630,97010 -312380,93840 -161060,-3070 151320,-96900 255690,-47200 161060,3070z"/>
         </g>
        </g>
       </g>
       <g>
        <g>
         <path fill="white" fill-rule="nonzero" fill-opacity="0.949020" d="M5721300 6542670c-30570,-49250 -74930,-89150 -127430,-114590 -6070,-3040 -12380,-5840 -18680,-8170 -29640,-12140 -61840,-19610 -95450,-21470 -6070,-470 -12140,-700 -18210,-700 -40370,0 -78880,7930 -114130,22170 -60440,24500 -111560,67910 -145630,122760 -22880,36870 -38050,78880 -43420,123700l-167800 0c-5370,-44820 -20540,-86830 -43410,-123700 -34070,-54850 -85190,-98260 -145870,-122760 -35240,-14240 -73750,-22170 -113890,-22170 -40380,0 -78890,7700 -113900,22170 -52280,21010 -97090,55780 -130230,100120 -5360,7240 -10730,14710 -15170,22640 -26610,42240 -42710,91490 -45510,144240 -230,5360 -470,10730 -470,16100 0,17740 1640,35010 4430,52050 5840,32910 16810,63940 31980,92420l0 230c5610,10510 12140,20540 18900,30350 41310,58580 102700,102220 173880,120660 21470,5590 43880,8630 66980,9330 3040,240 6070,240 9110,240 104330,0 196520,-52510 251350,-130230 20540,-28710 35950,-60690 44820,-95000 2330,-9100 4430,-18430 5840,-28000 2100,-13770 3260,-27780 3260,-42020l163610 0c0,14240 1160,28250 3500,42020 1400,9570 3270,18900 5830,28000 8880,34310 24280,66290 44580,95000 54840,77720 147030,130230 251360,130230 4900,0 9810,0 14470,-470 41780,-1860 80990,-12140 116470,-29170l230 0c40610,-19380 76090,-47380 104330,-81690 5130,-6070 9800,-12370 14470,-18900 25200,-35940 42940,-77950 50640,-123000 3030,-17040 4660,-34310 4660,-52050 0,-58820 -16800,-113660 -45500,-160340zm-776960 240390l0 0c-10970,35250 -29170,67460 -52740,95000 -49250,57650 -122540,94050 -204220,94050l-6540 0c-78880,-1860 -149600,-38050 -197680,-94050 -29640,-34540 -50880,-76550 -59740,-123000 -3510,-16800 -5140,-34310 -5140,-52050 0,-59980 19610,-115530 52970,-160340 49020,-66050 127670,-108990 216130,-108990 88450,0 167100,42940 216110,108990 33380,44810 52990,100360 52990,160340 0,17740 -1630,35250 -5370,52050 -1630,9570 -3970,18900 -6770,28000zm721410 95000l0 0c-46920,54840 -115530,90310 -192310,93820 -3960,230 -7940,230 -11910,230 -81680,0 -154960,-36400 -204220,-94050 -23570,-27540 -41770,-59750 -52740,-95000 -2800,-9100 -5140,-18430 -6770,-28000 -3730,-16800 -5370,-34310 -5370,-52050 0,-59980 19610,-115530 52990,-160340 49010,-66050 127660,-108990 216110,-108990 88460,0 167110,42940 216130,108990 33610,44810 53200,100360 53200,160340 0,17740 -1630,35250 -5120,52050 -9110,46450 -30350,88460 -59990,123000z"/>
        </g>
       </g>
      </g>
     </g>
     <g>
      <path fill="#EDB1A3" fill-rule="nonzero" fill-opacity="0.949020" d="M7717260 8301750l120 240c101300,268650 201120,655650 224110,1169870 6420,146500 6890,303040 -710,470320 -6010,130140 -16900,266800 -33130,409570l-5640 -1030 -717030 -127900c0,0 -12410,-60040 -32610,-160440 -12960,-65860 -29480,-149160 -47990,-243950 -9470,-46560 -19100,-96070 -29150,-147800 -117820,-608790 -282870,-1517390 -242270,-1626590l406860 -134790c22080,6430 44990,13990 68120,22660 97730,66840 246140,184770 409320,369840z"/>
      <path fill="#EDB1A3" fill-rule="nonzero" fill-opacity="0.949020" d="M7214560 10044880l-1827280 561690 -32640 369960c0,0 2707920,406010 2558580,-850520l-698660 -81130z"/>
      <g>
       <path fill="#EFB3A5" fill-rule="nonzero" fill-opacity="0.949020" d="M4815750 10912060c0,0 -136790,2420 -262740,50160 -125960,47750 -127160,-86710 -14340,-129760 0,0 -65860,7020 -145450,44820 -79600,37800 -119730,-49370 -77550,-95550 0,0 -55130,20310 -82540,-30970 -27420,-51280 29450,-103640 51350,-118680 0,0 -102260,-89590 115550,-184920 217820,-95320 507910,-147610 871580,33730 250180,124750 265820,320860 206950,422760 -106910,185060 -438840,214920 -662810,8410z"/>
       <path fill="none" fill-rule="nonzero" fill-opacity="0.949020" stroke="#D17980" stroke-width="50800" stroke-miterlimit="10" stroke-opacity="0.949020" d="M4538670 10832460c189050,-69700 277690,-62280 277690,-62280"/>
       <path fill="none" fill-rule="nonzero" fill-opacity="0.949020" stroke="#D17980" stroke-width="50800" stroke-miterlimit="10" stroke-opacity="0.949020" d="M4315670 10781730c290150,-143380 439010,-131960 439010,-131960"/>
       <path fill="none" fill-rule="nonzero" fill-opacity="0.949020" stroke="#D17980" stroke-width="50800" stroke-miterlimit="10" stroke-opacity="0.949020" d="M4284480 10632080c181640,-115770 428820,-128460 428820,-128460"/>
      </g>
     </g>
     <path fill="#7E62E0" fill-rule="nonzero" d="M8215610 9954470l-274830 -12290 -1012880 -27190 1110 -49380 -252040 -1895050 204600 -94930c0,0 154460,-25870 358250,33620 22080,6430 44990,13990 68120,22660 385910,143570 896350,578700 907670,2022560z"/>
     <path fill="#7E62E0" fill-rule="nonzero" d="M4562660 8072520c0,0 -688050,357150 -1102010,1533090l855020 799990 471800 -586640 -224810 -1746440z"/>
     <path fill="none" fill-rule="nonzero" fill-opacity="0.949020" stroke="#D17980" stroke-width="50800" stroke-miterlimit="10" stroke-opacity="0.949020" d="M6992210 10113230l248500 -77800"/>
     <path fill="none" fill-rule="nonzero" fill-opacity="0.949020" stroke="#D17980" stroke-width="50800" stroke-miterlimit="10" stroke-opacity="0.949020" d="M3237200 9741700l345530 117230"/>
     <g>
      <path fill="none" fill-rule="nonzero" fill-opacity="0.949020" stroke="#48406B" stroke-width="26170" stroke-miterlimit="10" stroke-opacity="0.949020" d="M4571750 10087190c0,0 -48720,-824280 0,-1195000"/>
      <path fill="none" fill-rule="nonzero" fill-opacity="0.949020" stroke="#48406B" stroke-width="26170" stroke-miterlimit="10" stroke-opacity="0.949020" d="M4560920 9167140l-95040 -187810"/>
     </g>
     <g>
      <path fill="none" fill-rule="nonzero" fill-opacity="0.949020" stroke="#48406B" stroke-width="26170" stroke-miterlimit="10" stroke-opacity="0.949020" d="M7124350 9920270l-132140 -3550 -218330 -1217550"/>
      <path fill="none" fill-rule="nonzero" fill-opacity="0.949020" stroke="#48406B" stroke-width="26170" stroke-miterlimit="10" stroke-opacity="0.949020" d="M6807200 8884970l-110830 -110380"/>
     </g>
    </g>
   </g>
   <g>
    <g>
     <path fill="#33314F" fill-rule="nonzero" fill-opacity="0.949020" d="M10044330 6535540c0,0 -527910,174870 -376200,662170 0,0 -404570,-48710 -514130,484790 0,0 -615280,-23360 -581570,609070 33720,632410 735290,304910 735290,304910 0,0 178940,568390 661590,287810 0,0 299440,407010 631260,0l-556240 -2348750z"/>
     <path fill="#33314F" fill-rule="nonzero" fill-opacity="0.949020" d="M11525400 6734390c0,0 441960,337580 139520,748700 0,0 398310,85980 327770,626030 0,0 589210,178710 350950,765500 -238260,586800 -794540,48270 -794540,48270 0,0 -354640,478870 -719290,56140 0,0 -415870,287000 -596690,-206010l1292280 -2038630z"/>
     <path fill="#33314F" fill-rule="nonzero" fill-opacity="0.949020" d="M11755600 6799580c-5650,33080 -12580,66930 -20780,102070 -19230,83350 -45400,172090 -78990,267230 -770,2060 -1290,3850 -2320,5900 -12810,36180 -26670,73350 -41800,111310 -17690,44630 -59240,74880 -106430,76700l-1220790 43070c-93860,3330 -150800,-104640 -183120,-194150 -127710,-354420 -372640,-1185650 494220,-1467760 151570,-49240 313140,-58980 469080,-27700 323920,65150 831210,292370 690930,1083330z"/>
    </g>
    <g>
     <path fill="#E8776E" fill-rule="nonzero" fill-opacity="0.949020" d="M11440390 10404020c-13050,64940 -17380,125530 -13800,182360 3920,61190 16570,117650 37410,169980 303000,765950 2291290,628540 2291290,628540l-2750 -346410 -1583870 -629060 -72780 -28780 -655500 23370z"/>
     <g>
      <path fill="#E8776E" fill-rule="nonzero" fill-opacity="0.949020" d="M12125000 10596710l-593820 291310c-35140,-44150 -63520,-94390 -85180,-151760 -25530,-67010 -48960,-132520 -70810,-196550 -1980,-6620 -4490,-13470 -6730,-20070 -46630,-140560 -84330,-274180 -114910,-401080 -78730,-329230 -106830,-611410 -109110,-842780 -1250,-96960 2650,-184810 9110,-263520l-260 -230c98720,-207840 201590,-351650 271750,-437050 18340,-13360 37220,-26220 55350,-37770l20050 720 118410 4810 194450 7760c23920,28810 48190,61220 73100,97440 12310,18130 24670,37020 37050,57180 55770,289620 117360,915940 157800,1368660 2800,34560 5540,67830 8260,100090 1410,13300 2310,26620 3460,39660 1130,12790 2260,25350 3120,37630 3340,35560 6090,69100 8780,100330 2780,34040 5720,65010 7800,92910 7880,95470 12330,152310 12330,152310z"/>
      <path fill="none" fill-rule="nonzero" fill-opacity="0.949020" stroke="#914441" stroke-width="48810" stroke-miterlimit="10" stroke-opacity="0.949020" d="M12036830 10359720l195780 75110"/>
     </g>
     <g>
      <g>
       <path fill="#E8776E" fill-rule="nonzero" fill-opacity="0.949020" d="M13621920 10988430c-7480,6890 -14590,13910 -21300,21070 -160,170 -330,330 -490,500 -160,170 -290,350 -460,510 -96400,103630 -108080,235010 109620,361560 25790,14990 55740,19850 88100,17640l20 90c0,0 197970,-13660 364390,-83330 101330,-42420 122250,-85960 127820,-89370 29200,-7460 52320,-11470 66210,-10560 25340,1660 46900,14070 46900,14070 0,0 -12610,27600 -61080,47950 -48470,20350 -36940,122660 82150,66210 99200,-47020 129930,-105600 104290,-155410 10270,7970 20290,16480 29900,25690 130320,125090 221360,6340 78480,-114780 -15770,-13380 -32570,-26480 -50040,-39250 3550,-1830 6700,-3780 9450,-5820 10290,5860 20330,12220 30030,19190 149160,107240 209590,-36460 53630,-128120 -42870,-25190 -91440,-47280 -141200,-65620 23670,1670 46500,4590 67700,9120 147120,31450 189120,-96830 49980,-135120 -139150,-38290 -377190,-44270 -529040,-12930 -143130,29540 -379180,139080 -505060,256710z"/>
       <path fill="none" fill-rule="nonzero" fill-opacity="0.949020" stroke="#914441" stroke-width="48810" stroke-miterlimit="10" stroke-opacity="0.949020" d="M14485260 10868470c-179890,4020 -251100,39220 -251100,39220"/>
       <path fill="none" fill-rule="nonzero" fill-opacity="0.949020" stroke="#914441" stroke-width="48810" stroke-miterlimit="10" stroke-opacity="0.949020" d="M14457940 11183930c0,0 -44480,-25650 -123670,-10290"/>
      </g>
      <g>
       <path fill="none" fill-rule="nonzero" fill-opacity="0.949020" stroke="#914441" stroke-width="48810" stroke-miterlimit="10" stroke-opacity="0.949020" d="M14155400 11204580c84660,-32810 137150,-87730 198970,-103880 82410,-21510 240120,-27440 253020,-70020 24950,-82500 -65720,-96220 -175780,-96900 -110050,-670 -284860,-27500 -315210,-94880"/>
      </g>
     </g>
    </g>
    <path fill="#7E62E0" fill-rule="nonzero" d="M11939740 8543800c510,10260 0,21030 -1540,31540l-117460 1715010 -101050 1473920 -3127370 -50530 515500 -3131470c-32060,-202340 96950,-395460 296470,-442140 93360,-21790 191080,-38970 286490,-52830 23080,-3340 46160,-6410 68720,-9490 47970,-6170 94650,-11280 139260,-15900 20270,-2060 40010,-3850 59250,-5640 13860,-1290 27700,-2570 41040,-3600 184400,-16150 316480,-18720 316480,-18720l431120 29760c85660,0 168490,5120 248000,13840 5900,510 11800,1290 17700,2050 3850,510 7440,770 11030,1290 10520,1530 20770,2820 31030,4090 29500,4110 58210,8740 86690,13600 26420,4630 52310,9480 77710,14620l250 260c21550,4360 42830,8980 63860,13580 72320,16420 140030,35150 202360,54390 30010,9220 49240,14870 62320,18450 510,0 1540,270 2300,520 11290,3340 17710,4870 22320,6150 1270,260 2300,520 3850,1030 5130,1550 9240,3070 18970,7180 1290,510 2830,1280 4110,1800 70530,30010 202090,111300 340590,327240z"/>
    <g>
     <path fill="#914441" fill-rule="nonzero" fill-opacity="0.949020" d="M10772540 7700330c-31020,46570 166500,102840 189060,57230 22550,-45620 -156970,-105400 -189060,-57230z"/>
    </g>
    <g>
     <path fill="#7E62E0" fill-rule="nonzero" fill-opacity="0.949020" d="M12370600 9992840c0,0 -122070,78740 -267230,159520 -93100,51810 -196200,104640 -282630,137990 -74380,28460 -136700,42560 -169790,28980l-93860 -1896570 -11030 -223120c0,0 520,0 1540,240 510,0 1540,270 2300,520 4370,770 11800,2560 22320,6150 1270,260 2300,520 3850,1030 5630,2060 11790,4370 18970,7180 1290,510 2830,1280 4110,1800 58470,24880 158750,84880 270320,227740 23080,29490 46420,62570 70270,99500 11800,18470 23590,37710 35390,58210 152080,260590 307240,688370 395470,1390830z"/>
    </g>
    <g>
     <path fill="none" fill-rule="nonzero" fill-opacity="0.949020" stroke="#3C3A57" stroke-width="16930" stroke-miterlimit="10" stroke-opacity="0.949020" d="M11685680 9017300c0,0 239420,689180 135060,1273050"/>
     <path fill="none" fill-rule="nonzero" fill-opacity="0.949020" stroke="#3C3A57" stroke-width="16930" stroke-miterlimit="10" stroke-opacity="0.949020" d="M11735140 9184170l59270 -125560"/>
    </g>
    <g>
     <path fill="#E8776E" fill-rule="nonzero" fill-opacity="0.949020" d="M9137820 8290160c1800,-1530 3590,-2820 5390,-4100 12830,-9490 24890,-17950 36420,-25640 21550,-7960 42830,-15140 63350,-21040l379570 125670c37700,101810 -116180,948930 -225950,1516740 -9490,48220 -18460,94380 -27190,137730 -15630,79240 -29490,149520 -41020,207480 -1290,6930 -2570,13590 -3850,20000 -18730,93610 -30270,149530 -30270,149530l-668610 119250 -5390 1030c-9750,-86170 -17440,-170050 -23070,-251350 -3090,-44360 -5650,-87710 -7700,-130530 -7190,-155940 -6670,-301860 -770,-438560 19230,-428050 95400,-761460 179010,-1006380l370080 -399830z"/>
     <path fill="#E8776E" fill-rule="nonzero" fill-opacity="0.949020" d="M9286930 10233580l1623570 735600 -13570 346030c0,0 -2552500,55240 -2265770,-1089230l655770 7600z"/>
     <g>
      <path fill="#E8776E" fill-rule="nonzero" fill-opacity="0.949020" d="M11402960 11319320c0,0 126240,18420 237080,77460 110840,59060 127850,-65150 28610,-118320 0,0 60070,14290 129220,58660 69140,44380 116570,-31500 83030,-79200 0,0 48580,25300 79990,-18870 31420,-44190 -14970,-99340 -33460,-115850 0,0 105190,-70770 -85000,-184690 -190170,-113920 -452300,-196590 -810080,-71880 -246140,85790 -283800,265310 -241410,366520 76990,183800 380450,250680 612020,86170z"/>
      <path fill="none" fill-rule="nonzero" fill-opacity="0.949020" stroke="#914441" stroke-width="48810" stroke-miterlimit="10" stroke-opacity="0.949020" d="M11668650 11278460c-166610,-86820 -249470,-90440 -249470,-90440"/>
      <path fill="none" fill-rule="nonzero" fill-opacity="0.949020" stroke="#914441" stroke-width="48810" stroke-miterlimit="10" stroke-opacity="0.949020" d="M11880900 11257920c-251410,-166930 -390430,-173960 -390430,-173960"/>
      <path fill="none" fill-rule="nonzero" fill-opacity="0.949020" stroke="#914441" stroke-width="48810" stroke-miterlimit="10" stroke-opacity="0.949020" d="M11927430 11123200c-154290,-128560 -381400,-169520 -381400,-169520"/>
     </g>
     <path fill="none" fill-rule="nonzero" fill-opacity="0.949020" stroke="#914441" stroke-width="48810" stroke-miterlimit="10" stroke-opacity="0.949020" d="M9404060 10286650l-194980 -88910"/>
    </g>
    <path fill="#7E62E0" fill-rule="nonzero" d="M9380080 8146690c0,0 -908500,248010 -1120870,1995030 0,0 814070,78180 1215190,-52390l285200 -1755590 -379520 -187050z"/>
    <g>
     <path fill="none" fill-rule="nonzero" fill-opacity="0.949020" stroke="#3C3A57" stroke-width="16930" stroke-miterlimit="10" stroke-opacity="0.949020" d="M9349340 10121220l125060 -31890 71320 -1024160"/>
     <path fill="none" fill-rule="nonzero" fill-opacity="0.949020" stroke="#3C3A57" stroke-width="16930" stroke-miterlimit="10" stroke-opacity="0.949020" d="M9531060 9275730l109970 -119920"/>
    </g>
    <path fill="#48406B" d="M11330870 8138420c0,0 -77840,1002190 -770510,714940 -692680,-287250 -840790,-770220 -836430,-770700 55380,-6100 110080,-17880 174830,-20750 356780,-15800 820370,-9140 1270610,34680 55470,5400 108410,25550 161500,41830z"/>
    <g>
     <path fill="#E37673" stroke="#E37673" stroke-width="16930" stroke-miterlimit="22.9256" d="M11180010 8105640c0,0 -48540,919210 -611120,649810 -562590,-269390 -673690,-693300 -670120,-693540 416760,-27950 833600,-32510 1281240,43730z"/>
     <g>
      <g>
       <path fill="#E8776E" fill-rule="nonzero" fill-opacity="0.949020" d="M10132220 8174740c541630,143260 857830,267500 781810,54100l-16680 -82680 -4250 -21460 -46440 -230980 -44810 -221830 -21890 -107600 -577660 -51070 -30880 290920 -12780 119850 -26420 250750z"/>
      </g>
      <path fill="#914441" fill-rule="nonzero" fill-opacity="0.588235" d="M10158640 7923990c72560,28580 579760,130000 717760,117690l-29740 -147960 -649350 -329950 -38670 360220z"/>
     </g>
     <g>
      <g>
       <path fill="#E8776E" fill-rule="nonzero" d="M11662520 6901250c-1500,22380 -2990,44270 -4980,67180 -1000,13940 -2490,27870 -3990,41820 -9450,90100 -23390,172220 -40810,245890 -21410,91090 -48780,170220 -80140,239430 -25380,55720 -53760,105010 -84620,148330 -197110,280230 -485310,310590 -676450,292680 -220510,-20430 -556500,-128430 -666000,-574910 -33350,-133400 -45800,-297650 -28880,-498760 1500,-20920 3490,-41310 5980,-61730 1980,-22390 4970,-44310 7960,-65700 67700,-490810 292180,-862610 869100,-808850 583860,54760 732190,471870 702830,974620z"/>
      </g>
     </g>
     <path fill="none" fill-rule="nonzero" fill-opacity="0.949020" stroke="#914441" stroke-width="48810" stroke-miterlimit="10" stroke-opacity="0.949020" d="M11037030 7417270l284770 27790"/>
     <path fill="none" fill-rule="nonzero" fill-opacity="0.949020" stroke="#914441" stroke-width="48810" stroke-miterlimit="10" stroke-opacity="0.949020" d="M11321800 7445060c-231450,-38910 -166650,-388860 -166650,-388860"/>
     <g>
      <g>
       <g>
        <g>
         <path fill="#33314F" fill-rule="nonzero" fill-opacity="0.949020" d="M11488140 7081200c-5410,53090 -39400,93120 -75900,89390 -36490,-3720 -61690,-49790 -56270,-102880 5410,-53100 39400,-93120 75890,-89400 36500,3730 61690,49790 56280,102890z"/>
        </g>
       </g>
      </g>
      <g>
       <g>
        <g>
         <path fill="#33314F" fill-rule="nonzero" fill-opacity="0.949020" d="M10869910 7018120c-5410,53100 -39380,93130 -75890,89400 -36490,-3720 -61690,-49790 -56280,-102880 5430,-53100 39400,-93130 75900,-89400 36510,3730 61690,49790 56270,102880z"/>
        </g>
       </g>
      </g>
     </g>
     <g>
      <g>
       <g>
        <g>
         <path fill="#33314F" fill-rule="nonzero" fill-opacity="0.949020" d="M11361950 6777250c-46620,63250 175260,139920 211670,77960 36400,-61960 -163430,-143380 -211670,-77960z"/>
        </g>
       </g>
      </g>
      <g>
       <g>
        <g>
         <path fill="#33314F" fill-rule="nonzero" fill-opacity="0.949020" d="M10871260 6698470c33590,71020 -198930,103550 -222720,35760 -23790,-67810 187980,-109240 222720,-35760z"/>
        </g>
       </g>
      </g>
     </g>
     <g>
      <path fill="#972A44" fill-rule="nonzero" fill-opacity="0.949020" d="M10777400 7459660c1110,39010 12970,76450 33300,108520 28600,45120 74090,79660 130190,93460 50900,12510 101840,5750 145480,-15460 38680,-18850 71430,-49210 93050,-87660l-402020 -98860z"/>
      <path fill="#DB3B5D" fill-rule="nonzero" fill-opacity="0.949020" d="M10810700 7568180c28600,45120 74090,79660 130190,93460 50900,12510 101840,5750 145480,-15460 -15220,-45550 -62910,-86310 -126040,-101820 -57770,-14220 -114010,-3730 -149630,23820z"/>
     </g>
     <path fill="#33314F" fill-rule="nonzero" fill-opacity="0.949020" d="M11755600 6799580c-5650,33080 -12580,66930 -20780,102070 -19230,83350 -45400,172090 -78990,267230 -770,2060 -1290,3850 -2320,5900 -104890,-169270 -28460,-569090 -28460,-569090 -321610,-32320 -530640,-285470 -530640,-285470 -228250,109790 -572680,72340 -572680,72340 -66940,343660 -214670,510880 -289560,576280 -17950,15640 -45640,2560 -45640,-21030l-780 -112840 -141420 -78750 77310 -307710 92940 -289730 410760 -262480 635780 35900 216460 194650 240570 286230 37450 386500z"/>
     <g>
      <g>
       <path fill="#E8776E" fill-rule="nonzero" fill-opacity="0.949020" d="M10280610 6861160c-13040,-19410 -30320,-36700 -51860,-51550 -61870,-42470 -126490,-61280 -184420,-53390 -15460,2120 -30620,6060 -44880,12440 -25180,10300 -48530,26690 -68850,49430 -15470,16990 -29120,37610 -40960,61570 -31530,64310 -39420,130430 -27890,192910 14250,75220 57620,144980 124350,199880 19720,16380 41850,28820 64610,37000 73700,27310 156500,13950 202610,-42760 5150,-3330 10010,-7890 13330,-13660 2750,-3620 4860,-8180 6380,-13050 910,-3020 1820,-5740 2730,-8780 0,0 0,-310 300,-600 6070,-19420 12430,-40350 18200,-62190 13050,-48220 23350,-100400 24260,-151050 2120,-56720 -7580,-111600 -37910,-156200z"/>
      </g>
      <path fill="none" fill-rule="nonzero" fill-opacity="0.949020" stroke="#914441" stroke-width="48810" stroke-miterlimit="10" stroke-opacity="0.949020" d="M10163350 7197710c0,0 110190,-359110 -175040,-267000"/>
      <path fill="none" fill-rule="nonzero" fill-opacity="0.949020" stroke="#914441" stroke-width="48810" stroke-miterlimit="10" stroke-opacity="0.949020" d="M10183240 7087600l-123200 -55870"/>
     </g>
    </g>
   </g>
  </g>
  <g id="_1576515788096">
   <g>
    <g>
     <path fill="#E2E4E4" fill-rule="nonzero" fill-opacity="0.949020" d="M495410 12295320l0 68490c0,86350 67560,157620 153790,162230l3483950 186330c93710,5010 187410,-9730 275040,-43260l1231950 -471250c62870,-24050 104410,-84400 104410,-151730l0 -181230 -5249140 430420z"/>
     <g>
      <path fill="#CDCDCD" fill-rule="nonzero" fill-opacity="0.949020" d="M4275270 12423820l1469280 -558920 -4197690 -125510 -1051450 555930 3779860 128500z"/>
      <g>
       <path fill="#3F3D57" fill-rule="nonzero" fill-opacity="0.949020" d="M5018370 12063690l-207950 77580 -34090 12920 -208230 77570 -34110 12660 -270 0 -272860 102050 -54470 -111970 -4390 -9060 -2480 -4950 -3850 -7990 -86920 -178230 522060 16780 280 0 37690 1380 260 0 349330 11260z"/>
       <g>
        <g>
         <path fill="#CDCDCD" fill-rule="nonzero" fill-opacity="0.949020" d="M4810420 12141270l-34090 12920 -352910 -11000 -37960 -1100 -181260 -5510 550 -13750 214820 6610 38230 1110 352620 10720z"/>
        </g>
        <g>
         <path fill="#CDCDCD" fill-rule="nonzero" fill-opacity="0.949020" d="M4568100 12231760l-34110 12660 -270 0 -327330 -9920 -4390 -9060 -6880 2470 -2750 -7710 7150 290 14300 550 354280 10720z"/>
        </g>
        <g>
         <path fill="#CDCDCD" fill-rule="nonzero" fill-opacity="0.949020" d="M4668780 12052430l-210700 78120 -280 0 -34110 12640 -270 0 -209600 77850 -11820 4400 -6880 2470 -2750 -7710 -2210 -5770 5510 -1930 189790 -70410 34110 -12650 211240 -78390 280 0 37690 1380z"/>
        </g>
       </g>
      </g>
     </g>
    </g>
    <g>
     <path fill="#E2E4E4" fill-rule="nonzero" fill-opacity="0.949020" d="M4274590 12443910l-3779860 -128500 -321000 -2289670c-34450,-245720 134180,-438240 376630,-430000l2901840 98640c242460,8260 466940,214130 501390,459850l321000 2289680z"/>
     <path fill="#FDBA3B" fill-rule="nonzero" fill-opacity="0.949020" d="M2354370 11291600c0,150160 -121740,271880 -271910,271880 -150160,0 -271880,-121720 -271880,-271880 0,-150170 121720,-271900 271880,-271900 150170,0 271910,121730 271910,271900z"/>
    </g>
   </g>
   <g>
    <g>
     <g>
      <g>
       <path fill="#00AFD1" fill-rule="nonzero" fill-opacity="0.949020" d="M16092380 11731400l-4439930 0 366640 -2986030 4439930 0 -366640 2986030z"/>
       <path fill="#0087BA" fill-rule="nonzero" fill-opacity="0.949020" d="M16278700 11731400l-4439910 0 366640 -2986030 4439910 0 -366640 2986030z"/>
      </g>
      <g>
       <path fill="#0087BA" fill-rule="nonzero" fill-opacity="0.949020" d="M13523850 12430030l911950 -244900 96640 275180 -1008590 -30280z"/>
       <path fill="#00AFD1" fill-rule="nonzero" fill-opacity="0.949020" d="M13803020 10549500l720540 0 465420 1542370c73370,243120 -108620,488130 -362570,488130l-262800 0 -560590 -2030500z"/>
       <path fill="#006790" fill-rule="nonzero" fill-opacity="0.949020" d="M13931260 10549500l720540 0 498740 1652790c56760,188120 -84060,377710 -280560,377710l-378130 0 -560590 -2030500z"/>
       <path fill="#006790" fill-rule="nonzero" fill-opacity="0.949020" d="M13523850 12429290l1008590 0 0 150710 -1008590 0 0 -150710z"/>
      </g>
     </g>
     <path fill="#00AFD1" fill-rule="nonzero" fill-opacity="0.949020" d="M14554570 9915160c0,172590 -139910,312510 -312510,312510 -172590,0 -312510,-139920 -312510,-312510 0,-172600 139920,-312520 312510,-312520 172600,0 312510,139920 312510,312520z"/>
    </g>
    <g>
     <g>
      <g>
       <path fill="#00AFD1" fill-rule="nonzero" fill-opacity="0.949020" d="M10590150 12077730l-414450 0 0 -164830 414450 0 0 164830z"/>
       <path fill="#00AFD1" fill-rule="nonzero" fill-opacity="0.949020" d="M11156030 12077730l-414440 0 0 -164830 414440 0 0 164830z"/>
       <path fill="#00AFD1" fill-rule="nonzero" fill-opacity="0.949020" d="M11721920 12077730l-414430 0 0 -164830 414430 0 0 164830z"/>
       <path fill="#00AFD1" fill-rule="nonzero" fill-opacity="0.949020" d="M12287820 12077730l-414440 0 0 -164830 414440 0 0 164830z"/>
       <path fill="#00AFD1" fill-rule="nonzero" fill-opacity="0.949020" d="M12853710 12077730l-414450 0 0 -164830 414450 0 0 164830z"/>
       <path fill="#00AFD1" fill-rule="nonzero" fill-opacity="0.949020" d="M13419600 12077730l-414440 0 0 -164830 414440 0 0 164830z"/>
       <path fill="#00AFD1" fill-rule="nonzero" fill-opacity="0.949020" d="M13985490 12077730l-414440 0 0 -164830 414440 0 0 164830z"/>
      </g>
      <path fill="#006790" fill-rule="nonzero" fill-opacity="0.949020" d="M14068060 12246430l-3982420 0 0 -226410 3982420 0 0 226410z"/>
     </g>
     <g>
      <path fill="#0087BA" fill-rule="nonzero" fill-opacity="0.949020" d="M9851760 12244590l-1433890 0c-35350,0 -59040,-35900 -45400,-68520 96580,-230880 490500,-917100 1512170,-17470 33950,29880 12360,85990 -32880,85990z"/>
      <path fill="none" fill-rule="nonzero" fill-opacity="0.949020" stroke="#00AFD1" stroke-width="70560" stroke-miterlimit="10" stroke-opacity="0.949020" d="M9884640 12158600l-505070 -349560"/>
     </g>
    </g>
   </g>
  </g>
  <g id="_1576515790352">
   <g>
    <g>
     <g>
      <g>
       <g>
        <path fill="#E2E4E4" fill-rule="nonzero" fill-opacity="0.949020" d="M13822400 1723990l0 1673210c0,71180 -57690,128870 -128890,128870l-2727880 0c-71190,0 -128870,-57690 -128870,-128870l0 -1673210c0,-71180 57680,-128870 128870,-128870l2727880 0c71200,0 128890,57690 128890,128870z"/>
       </g>
       <g>
        <path fill="#006790" fill-rule="nonzero" fill-opacity="0.949020" d="M13822400 1723990l0 133350 -2985640 0 0 -133350c0,-71180 57680,-128870 128870,-128870l2727880 0c71200,0 128890,57690 128890,128870z"/>
        <g>
         <path fill="#00AA80" fill-rule="nonzero" fill-opacity="0.949020" d="M11426570 1726230c0,40580 -32900,73480 -73480,73480 -40580,0 -73490,-32900 -73490,-73480 0,-40590 32910,-73490 73490,-73490 40580,0 73480,32900 73480,73490z"/>
         <path fill="#FDBA3B" fill-rule="nonzero" fill-opacity="0.949020" d="M11234920 1726230c0,40580 -32900,73480 -73480,73480 -40590,0 -73490,-32900 -73490,-73480 0,-40590 32900,-73490 73490,-73490 40580,0 73480,32900 73480,73490z"/>
         <path fill="#EB496E" fill-rule="nonzero" fill-opacity="0.949020" d="M11038350 1726230c0,40580 -32890,73480 -73490,73480 -40580,0 -73480,-32900 -73480,-73480 0,-40590 32900,-73490 73480,-73490 40600,0 73490,32900 73490,73490z"/>
        </g>
       </g>
      </g>
      <path fill="#FDBA3A" fill-rule="nonzero" fill-opacity="0.949020" d="M11548120 2327980l163710 0 0 578800 -163710 0 0 -578800zm-223250 578800l-163720 0 0 -578800 163720 0 0 578800zm234820 -225730l-246400 0 0 -135600 246400 0 0 135600zm391100 225730l0 -448980 -177770 0 0 -129820 518430 0 0 129820 -176940 0 0 448980 -163720 0zm401850 0l0 -578800 134780 0 239780 393590 -71110 0 233180 -393590 134770 0 1660 578800 -150490 0 -1650 -349760 25630 0 -174470 292710 -72760 0 -179430 -292710 31420 0 0 349760 -151310 0zm788810 0l0 -578800 163720 0 0 448980 276160 0 0 129820 -439880 0z"/>
     </g>
    </g>
    <g>
     <g>
      <path fill="#FDBA3B" fill-rule="nonzero" fill-opacity="0.949020" d="M2317950 8108850l-1729650 0c-137290,0 -248560,-111290 -248560,-248560l0 -1729660c0,-137280 111290,-248570 248560,-248570l1729650 0c137280,0 248560,111290 248560,248560l0 1729670c0,137270 -111280,248560 -248560,248560z"/>
      <g>
       <path fill="white" fill-rule="nonzero" fill-opacity="0.949020" d="M1171890 6910560l-309920 106380 309920 106360 0 173870 -521640 -189220 0 -182040 521640 -189220 0 173870z"/>
       <path fill="white" fill-rule="nonzero" fill-opacity="0.949020" d="M1524740 6513740l204550 0 -337520 963430 -204540 0 337510 -963430z"/>
       <path fill="white" fill-rule="nonzero" fill-opacity="0.949020" d="M2255990 6925910l0 182040 -521630 189220 0 -173870 309920 -106360 -309920 -106380 0 -173870 521630 189220z"/>
      </g>
     </g>
     <g>
      <g>
       <path fill="#0087BA" fill-rule="nonzero" fill-opacity="0.949020" d="M15499880 6952890l-1430210 0c-113510,0 -205530,-92020 -205530,-205540l0 -1430210c0,-113510 92020,-205530 205530,-205530l1430210 0c113510,0 205540,92020 205540,205530l0 1430210c0,113520 -92030,205540 -205540,205540z"/>
      </g>
      <g>
       <path fill="white" fill-rule="nonzero" fill-opacity="0.949020" d="M14964820 6587260c870,98600 -78380,179250 -176990,180130 -98600,850 -179260,-78380 -180130,-177000 -870,-98610 78380,-179260 176990,-180130 98620,-860 179260,78380 180130,177000z"/>
       <path fill="white" fill-rule="nonzero" fill-opacity="0.949020" d="M15297690 5743230c-303510,-228780 -725510,-225060 -1024940,9020 -46940,36320 -112680,42980 -151560,6560 -38810,-36180 -26650,-111800 33140,-158440 367830,-287540 886260,-292130 1259070,-11080 60610,45610 74110,120950 35940,157830 -38240,37080 -104100,31660 -151650,-3890z"/>
       <path fill="white" fill-rule="nonzero" fill-opacity="0.949020" d="M15127340 6027520c-205200,-138410 -476550,-136030 -679280,5980 -48050,33110 -113720,40060 -152990,3990 -39200,-35690 -23950,-115290 42690,-161860 267740,-187530 626080,-190680 897090,-7890 67440,45420 84080,124700 45530,161070 -38620,36730 -104430,30970 -153040,-1290z"/>
       <path fill="white" fill-rule="nonzero" fill-opacity="0.949020" d="M14942740 6314620c-99940,-49950 -218710,-48900 -317750,2790 -50370,25090 -116140,32750 -156260,-2480 -40210,-34530 -17150,-124280 67190,-168280 153630,-80170 337850,-81790 492870,-4340 85090,42580 109740,131880 70140,167080 -39490,35890 -105410,29430 -156190,5230z"/>
      </g>
     </g>
    </g>
    <g>
     <g>
      <g>
       <g>
        <path fill="white" fill-rule="nonzero" fill-opacity="0.949020" d="M9095610 5782450l2976260 0c173350,0 313860,-140530 313860,-313870l0 -681510c0,-173350 -140510,-313860 -313860,-313860l-2976260 0c-173340,0 -313860,140510 -313860,313860l0 681510c0,173340 140520,313870 313860,313870z"/>
        <path fill="white" fill-rule="nonzero" fill-opacity="0.949020" d="M8781750 5471060l0 818870 411250 -542680 -411250 -276190z"/>
       </g>
      </g>
      <path fill="#0087BA" fill-rule="nonzero" fill-opacity="0.949020" d="M9449450 5326010c-34220,0 -63470,-7570 -87780,-22690 -24300,-15130 -42770,-37940 -55420,-68440 -12640,-30500 -18960,-69560 -18960,-117160 0,-48110 5950,-87410 17850,-117910 11900,-30500 29880,-53190 53930,-68070 24050,-14870 54180,-22310 90380,-22310 36700,0 70050,8550 100060,25660 30000,17110 53810,41160 71410,72160 17610,30990 26410,67820 26410,110470 0,42650 -8800,79590 -26410,110840 -17600,31240 -41410,55290 -71410,72150 -30010,16860 -63360,25300 -100060,25300zm-253660 137610l0 -547500 134640 0 0 68440 -740 133160 7440 133900 0 212000 -141340 0zm223910 -249940c15870,0 30130,-3720 42770,-11160 12650,-7440 22810,-18350 30500,-32730 7690,-14380 11530,-31740 11530,-52070 0,-20340 -3840,-37690 -11530,-52080 -7690,-14380 -17850,-25290 -30500,-32730 -12640,-7440 -26900,-11160 -42770,-11160 -15870,0 -30130,3720 -42780,11160 -12640,7440 -22810,18350 -30490,32730 -7690,14390 -11540,31740 -11540,52080 0,20330 3850,37690 11540,52070 7680,14380 17850,25290 30490,32730 12650,7440 26910,11160 42780,11160zm555680 -304250c31240,0 59510,6320 84800,18970 25300,12640 45260,32110 59890,58390 14630,26290 21940,60260 21940,101910l0 230610 -141340 0 0 -207550c0,-28760 -5820,-49710 -17480,-62850 -11650,-13150 -27890,-19720 -48720,-19720 -14880,0 -28520,3350 -40920,10050 -12400,6690 -22070,16980 -29010,30870 -6940,13880 -10410,31980 -10410,54300l0 194900 -141340 0 0 -551970 141340 0 0 263340 -32730 -33470c15370,-29260 36450,-51210 63230,-65840 26780,-14630 57030,-21940 90750,-21940zm316900 560890c-21330,0 -42770,-3350 -64350,-10040 -21570,-6700 -39050,-15500 -52440,-26410l49100 -98940c8430,7440 18220,13270 29380,17480 11160,4220 22190,6330 33100,6330 15380,0 27530,-3480 36450,-10420 8930,-6940 16620,-17850 23060,-32730l18600 -46860 11160 -14140 136870 -338470 134650 0 -174070 419560c-13890,34710 -29880,61860 -47980,81450 -18100,19590 -38190,33350 -60260,41290 -22070,7930 -46490,11900 -73270,11900zm55050 -133900l-177790 -420300 145060 0 130920 325830 -98190 94470zm528160 -10410c-51580,0 -91750,-12780 -120510,-38320 -28770,-25540 -43150,-64090 -43150,-115670l0 -345910 141340 0 0 344420c0,14380 3970,25670 11900,33850 7940,8180 18110,12270 30500,12270 16870,0 31250,-4210 43150,-12640l34960 98930c-11900,7940 -26530,13770 -43890,17490 -17350,3720 -35460,5580 -54300,5580zm-222420 -289380l0 -105630 292340 0 0 105630 -292340 0zm565360 289380c-44140,0 -83320,-8930 -117540,-26790 -34220,-17850 -61120,-42520 -80710,-74010 -19590,-31490 -29380,-67570 -29380,-108240 0,-40660 9790,-76620 29380,-107860 19590,-31250 46490,-55670 80710,-73280 34220,-17600 73400,-26400 117540,-26400 44130,0 83440,8800 117900,26400 34470,17610 61370,42030 80710,73280 19350,31240 29020,67200 29020,107860 0,40670 -9670,76750 -29020,108240 -19340,31490 -46240,56160 -80710,74010 -34460,17860 -73770,26790 -117900,26790zm0 -112330c16360,0 30870,-3720 43510,-11160 12650,-7440 22690,-18470 30130,-33100 7440,-14630 11160,-32120 11160,-52450 0,-20330 -3720,-37560 -11160,-51700 -7440,-14130 -17480,-24920 -30130,-32360 -12640,-7440 -27150,-11160 -43510,-11160 -15870,0 -30130,3720 -42780,11160 -12640,7440 -22810,18230 -30500,32360 -7680,14140 -11530,31370 -11530,51700 0,20330 3850,37820 11530,52450 7690,14630 17860,25660 30500,33100 12650,7440 26910,11160 42780,11160zm555680 -304250c31240,0 59510,6320 84800,18970 25300,12640 45260,32110 59890,58390 14630,26290 21940,60260 21940,101910l0 230610 -141340 0 0 -207550c0,-28760 -5820,-49710 -17480,-62850 -11650,-13150 -27890,-19720 -48720,-19720 -14880,0 -28520,3350 -40920,10050 -12400,6690 -22070,16980 -29010,30870 -6940,13880 -10410,31980 -10410,54300l0 194900 -141340 0 0 -403190 134640 0 0 114560 -26030 -33470c15370,-29260 36450,-51210 63230,-65840 26780,-14630 57030,-21940 90750,-21940z"/>
     </g>
    </g>
   </g>
  </g>
 </g>
 <g id="Layer_x0020_1">
  <metadata id="CorelCorpID_1Corel-Layer"/>
  <g id="_2479623350720">
   <path fill="white" d="M5152450 9764500c36840,-330 73780,-560 110610,-1010 -2680,-64560 -5660,-129010 -9260,-193570 18520,55980 36520,111860 54530,167840 1540,6200 6690,18730 7000,24820 32410,-790 65030,-1580 97550,-2470 -620,-5770 -4530,-15810 -6380,-21900 -2470,-8360 -4530,-14680 -7210,-22570 -14100,-44360 -28400,-88720 -42900,-132970 -10090,-29790 -19660,-58120 -29430,-87690 -8650,-25620 -17390,-51470 -25940,-77090 -1330,-4060 -1230,-9480 -5760,-9260 -53710,2150 -107520,3500 -161130,4180 3400,58580 6900,117270 10080,175730 3190,58580 5770,117270 8240,175960z"/>
   <path fill="white" d="M5918190 9743960c36110,-900 72230,-1690 108340,-2480 4530,-110 5670,-12420 8030,-21330 1960,-8920 3700,-16140 5760,-24720 3710,-15920 7520,-31830 11430,-48300 1950,-8480 18520,-79110 33950,-148320 15440,-69270 30050,-137470 29840,-141310 -35600,460 -71100,1130 -106600,2260 -4830,110 -5560,15130 -7300,24150 -8440,45600 -16670,90980 -25010,136350 -1850,8810 -10180,48870 -10180,54630 -930,110 -1750,110 -2470,110 -310,-5750 -12970,-43790 -15950,-52590 -5870,-18170 -11630,-36120 -17080,-53170 -8540,-26630 -17080,-53150 -25520,-79560 -2680,-8580 -5660,-24500 -10600,-24270 -35500,2370 -70990,4740 -106490,7330 410,6320 5240,17160 7410,23030 8330,22910 16770,45930 25100,68840 2780,7460 27440,74860 51040,141880 23620,67060 45990,133750 46300,137470z"/>
   <path fill="white" d="M5372740 9566980c210,5080 4630,16150 6690,21900 2470,7910 4730,14230 7200,22470 14310,44010 28510,88030 42500,132280 4020,-4750 19760,-84430 20990,-89740 1850,-8800 17490,-87580 20060,-91750 3610,66470 7930,129680 10810,195930 36830,-1120 73770,-2370 110710,-3610 -2680,-60270 -5600,-120450 -9050,-180590 -3440,-60050 -7310,-120200 -11110,-180360 -210,-2820 -820,-3500 -3610,-3160 -52990,4170 -105980,8010 -158960,11740 -4530,340 -4740,9250 -6490,18400 -1330,6430 -2980,14330 -4220,21100 -2980,14340 -5450,28000 -8540,41990 -2770,14000 -5450,27540 -8440,41200 -2980,14110 -5760,28210 -8540,42200z"/>
   <path fill="white" d="M5334980 9060220c2880,-4520 49290,-28220 60090,-34880 10290,-5640 20470,-11410 30870,-17160 39920,-23920 84060,-48530 124610,-73250 45880,-29000 68930,-17500 113900,-1920 20890,7000 41880,14230 62970,21110 5970,1920 10080,3160 15950,5080 5560,1920 9570,3720 15540,5640 12650,4290 91260,31160 94760,35100 -2770,4520 -28390,18060 -36940,22920 -12760,7790 -25300,15010 -38270,23130 -25620,15020 -51140,29910 -76550,44810 1030,7230 36110,48090 39090,56890 -9360,1010 -12140,0 -18820,-2380 -19040,-5860 -50730,-20200 -65240,-22450 -18420,-2830 -16570,15790 -63180,20870 -11210,1250 -18620,-450 -27370,-3490 -3080,-790 -5140,-1350 -8640,-2380 -69250,-23470 -138390,-47180 -207130,-71100 -5140,-1460 -12760,-3270 -15640,-6540zm-32930 2930c1140,32950 2270,65680 3710,98530 -3300,340 -6480,450 -9570,680 720,16930 1540,33750 2360,50570 10810,-690 21720,-1580 32520,-2370 -820,-16940 -1640,-33760 -2360,-50680 -3610,220 -7100,560 -10600,900 -1130,-24720 -2060,-49440 -2780,-74150 10090,5410 35090,13200 49590,18620 53300,19640 117610,39050 170710,58350 32100,12080 59360,18060 96100,3500 31480,-12640 7100,-17040 61530,2710 15540,5870 27060,10950 46820,8910 22010,-2250 45270,-26410 20270,-58010 -3390,-4180 -11730,-16140 -13070,-20990 5450,-1020 14100,-7680 18830,-10390 18830,-11170 37660,-22350 56590,-33520 9370,-5640 47850,-26070 55570,-34650 12030,-13770 14300,-44350 -16160,-55420 -18420,-6540 -36940,-13200 -55260,-19750 -46400,-17270 -99800,-32950 -146100,-49320 -33540,-11510 -40850,-14220 -77480,-8920 -29330,4180 -83760,44920 -114120,60610 -16350,8470 -97430,55760 -109260,62870 -12050,6660 -24190,13320 -36330,19980 -6990,3490 -9460,5530 -14810,11740 -4020,4620 -6900,12530 -6700,20200z"/>
   <path fill="white" d="M5671970 9666310c-46520,2030 -49700,-5980 -63900,-6430 1640,30920 3080,61730 4620,92660 1550,3620 3500,2490 15640,3160 60300,2830 129960,2710 169060,-48190 37250,-49670 27680,-117840 23980,-179570 -410,-7790 -23560,-68170 -26960,-77090 -6380,-18510 -22740,-59260 -27990,-76410 -20680,1580 -41160,3270 -61740,4850 -6170,790 -4730,2030 -4320,8240 4730,73920 9260,147970 13580,221890 730,12870 -3500,31150 -9360,38720 -6480,8690 -17800,17490 -32610,18170z"/>
   <path fill="white" d="M5366160 9202090c1550,30130 14820,46050 36320,55420 5250,2250 10500,3380 16150,5530 38800,13880 77590,27770 116590,41530 36940,10730 65330,32850 118630,1460 12660,-7440 25310,-14210 37970,-21780 19040,-11050 38070,-22120 57210,-33170 6380,-3620 13380,-7350 20060,-11290 5970,-3500 12660,-7900 18630,-10950 19960,-10730 37040,-19640 44970,-44810 6060,-20430 -520,-83980 -1760,-112420 -6170,1360 -26850,14230 -32100,17720 620,15920 1340,31720 2160,47410 720,15230 3800,33520 -1850,43900 -5970,11400 -16770,14560 -28090,21780 -41260,24720 -85710,48660 -127070,73250 -11020,6660 -24390,13550 -37460,14790 -21190,1920 -50320,-13430 -70270,-19180 -27990,-9820 -55880,-19760 -83660,-29690 -13790,-5080 -39610,-10950 -47640,-20320 -6590,-8010 -5450,-26860 -6270,-41420 -620,-15010 -1350,-30020 -2060,-45150 -5560,-3040 -27580,-11740 -34170,-11510 1240,26300 2380,52600 3710,78900z"/>
   <path fill="white" d="M5499510 9954800c0,2710 1030,3610 3810,3610 11730,-110 23460,-220 35190,-340 -110,-18400 -200,-36680 -310,-55190 14200,-110 28500,-340 42810,-570 200,17270 300,34550 410,51920 0,2600 710,3620 3390,3620 11830,-120 23670,-230 35600,-340 -310,-47520 -1020,-95030 -2160,-142550 -13060,450 -26140,790 -39000,1130 520,17610 830,35210 1140,52820 -14310,330 -28610,560 -42810,790 -410,-17500 -720,-34990 -1230,-52600 -12970,340 -26030,670 -39000,1020 1140,45600 1850,91190 2160,136680z"/>
   <path fill="white" d="M5719910 9893290c-410,-15810 -3810,-44920 3600,-54750 6790,-8690 34880,-11620 35600,14790 310,15240 3710,43110 -3180,52830 -7520,10600 -35810,10830 -36020,-12870zm-40850 -34880c510,25400 -2260,52260 14410,71000 26950,29900 107420,25280 106900,-40860 -820,-32400 3090,-73590 -37450,-86910 -5250,-1360 -19130,-3950 -25720,-3840 -35910,2040 -58960,24610 -58140,60610z"/>
   <path fill="white" d="M5918710 9916540c-13380,110 -21820,-5870 -21930,-22350 -610,-34080 -7410,-59260 20490,-59700 16860,-350 18620,14550 18920,26070 210,13880 8850,55750 -17480,55980zm-63080 -56100c620,26980 -2260,51810 14820,72800 18830,23140 67390,24380 88900,3620 18830,-17840 16660,-35110 17390,-54180 710,-16940 -210,-8810 -520,-21780 -1340,-76640 -87670,-72800 -110410,-38270 -6270,9590 -10490,22460 -10180,37810z"/>
   <path fill="white" d="M5237340 9918680c100,17610 -31080,12640 -42910,7900 -6900,-2710 -11110,-6540 -16870,-10040 -3200,2590 -21610,22350 -21610,24830 0,4400 17280,12530 21810,14110 21820,7330 25830,6770 47740,6770 25410,-110 52070,-17270 51860,-40410 -100,-20990 -3080,-33180 -28190,-42550 -7920,-3050 -15540,-4280 -25620,-5420 -12760,-1580 -22130,-2140 -22330,-11960 -310,-15460 27060,-9590 36220,-6660 5140,1690 10080,5420 14910,6320 2990,-2250 6700,-8910 9370,-12410 4330,-5540 8130,-8580 8330,-14340 -4320,-2030 -8530,-4060 -12960,-6200 -12970,-5870 -33030,-10060 -47440,-8020 -20060,2150 -38890,7110 -46810,27880 -7200,18510 -830,38940 18010,49440 24480,14210 56380,4960 56490,20760z"/>
   <path fill="white" d="M5330450 9868450c620,29130 -4210,66940 30050,82400 25000,11060 60500,6210 76970,-15350 3800,-4850 4420,-8010 7200,-13550 -9990,-3830 -19860,-7780 -29840,-11730 -12450,-3390 -210,12980 -27580,13320 -10700,220 -15950,-9710 -16040,-19750 -110,-12310 -320,-24610 -620,-36920 -520,-24040 26130,-26630 35700,-11280 2470,3390 2160,5410 8440,2930 32410,-12640 30450,-11400 23250,-22120 -23460,-35890 -89620,-28100 -102080,7340 -2560,6320 -5550,15800 -5450,24710z"/>
   <path fill="white" d="M6035280 9954350c34160,-120 68320,-230 102490,-230 6270,0 3390,-13770 3290,-31710 -110,-2710 -820,-3730 -3600,-3730 -21200,110 -42390,110 -63490,230 -410,-37930 -1340,-75740 -2360,-113660 -12970,110 -25940,340 -38900,450 1340,49550 2260,99100 2570,148650z"/>
  </g>
  <g id="_2479623350720_0">
   <path fill="white" d="M10281980 10203020c42620,1390 85250,2160 127880,2410 -120,-74970 -340,-149940 -690,-225040 18000,65440 35990,130620 54090,195940 1600,7120 6990,21610 6990,28590 37580,-630 75170,-1140 112760,-1900 -460,-6610 -4590,-18300 -6540,-25290 -2400,-9400 -4580,-16780 -7450,-25790 -14310,-51210 -28760,-102560 -43200,-153760 -9970,-34820 -19250,-67730 -28870,-102300 -8360,-29980 -16840,-60100 -25210,-90210 -1260,-4700 -910,-10930 -5960,-10930 -60960,120 -121920,-380 -182660,-1530 -110,68370 -340,136610 -570,204970 -220,68240 -340,136480 -570,204840z"/>
   <path fill="white" d="M11166370 10211150c41710,3810 83530,8890 125470,14610 5050,770 6890,-12450 9630,-21850 2410,-9280 4590,-16780 6990,-25930 4470,-16770 9060,-33420 13870,-50950 2400,-8900 22630,-83740 40340,-157440 17920,-74600 33790,-149190 33560,-153500 -40440,-4070 -80780,-8010 -121110,-11310 -5500,-510 -6300,15880 -8480,25420 -9510,48790 -19360,97330 -29330,145870 -2300,9280 -12270,51840 -12270,58190 -1030,-240 -1940,-240 -2860,-380 -230,-6350 -14330,-49680 -17650,-59720 -6650,-20580 -12720,-40920 -18900,-60100 -9410,-29870 -18920,-59590 -28200,-89460 -2860,-9780 -6290,-27190 -11800,-27570 -40330,-1650 -80550,-2920 -120770,-3940 230,6990 5610,19190 7900,25920 9170,25800 18220,51590 27390,77390 2860,8510 29850,84700 55460,159720 25830,75680 50420,150960 50760,155030z"/>
   <path fill="white" d="M10545420 9980640c0,5840 4580,18680 6650,25290 2520,9150 4460,16520 6980,25930 14560,50950 28880,101770 43320,152350 4700,-5210 26020,-95810 27840,-101780 2180,-9910 23610,-98990 26710,-103570 1490,75480 3770,147270 4690,222510 42630,-770 85140,-1400 127650,-1910 -1150,-67220 -2350,-134580 -4120,-201790 -1770,-67220 -3900,-134570 -6310,-201910 -110,-3300 -800,-4070 -4000,-4070 -60050,510 -120210,1150 -180130,1780 -5050,120 -5620,10300 -8150,20580 -1820,7380 -4000,16270 -5840,24020 -3900,16260 -7440,31640 -11570,47530 -4010,15750 -7790,31390 -11810,46750 -4120,16150 -8010,32280 -11910,48290z"/>
   <path fill="white" d="M10525480 9395990c3320,-4820 55000,-26940 67150,-33160 11460,-5210 22920,-10550 34380,-15890 44450,-21600 93500,-42940 138640,-64420 50890,-25290 76320,-9150 126050,14740 23040,10800 46300,21470 69560,32140 6640,2800 11230,4840 17650,7640 6070,2790 10650,5460 17190,8250 14200,6350 101180,44730 105190,49560 -3210,4570 -31740,16260 -41140,20710 -14090,6990 -28070,13210 -42620,20460 -28540,13340 -57070,26300 -85490,39260 1040,8010 39650,57190 42860,67230 -10430,-130 -13520,-1530 -20850,-4960 -21430,-8770 -56390,-28340 -72550,-32660 -20510,-5580 -18670,15250 -70700,15380 -12490,0 -20620,-2800 -30250,-7110 -3550,-1410 -5840,-2170 -9730,-3690 -76550,-34690 -152640,-69510 -228260,-104450 -5620,-2160 -13980,-4960 -17080,-9030zm-36440 0c120,38000 460,75990 810,113980 -3560,-120 -7230,-120 -10660,0 110,19580 340,39020 460,58450 12030,0 24290,0 36430,-120 -230,-19440 -460,-38890 -680,-58450 -3900,0 -7910,0 -11810,0 -340,-28340 -690,-57050 -800,-85650 11000,7250 38510,18680 54540,26300 58680,28210 129490,57190 188270,85140 35640,17030 65660,26690 107030,15000 35300,-10300 8250,-18050 68530,10290 17180,8130 30250,15130 52360,15250 24520,250 50770,-23510 23140,-60740 -3660,-5080 -12940,-19190 -14200,-24780 6070,-260 15690,-6480 20970,-8890 21080,-9920 42170,-19700 63250,-29610 10430,-5210 53170,-23130 61770,-31640 13520,-13600 15800,-46890 -17990,-61890 -20400,-9270 -40790,-18550 -61090,-27820 -51330,-24660 -110220,-49310 -161670,-74090 -37020,-17920 -45040,-21850 -85490,-21730 -32540,0 -93040,37240 -126730,50460 -18110,7240 -108410,50320 -121580,56790 -13520,6480 -27050,12840 -40570,19060 -7900,3440 -10540,5600 -16610,12210 -4470,4820 -7790,13590 -7680,22480z"/>
   <path fill="white" d="M10884490 10104920c-53520,-130 -56840,-9270 -73340,-10300 920,34570 1720,69010 2520,103320 1720,4060 3900,2920 17870,3930 69570,5470 149770,9540 196190,-43080 43990,-50700 34600,-125800 31740,-193520 -350,-8640 -25560,-76500 -29230,-86540 -6870,-20710 -24750,-66960 -30360,-86030 -23380,-500 -46640,-760 -70020,-880 -6980,250 -5390,1650 -5040,8640 3440,81450 6650,163030 9510,244730 340,14230 -4920,33930 -11800,41810 -7790,9030 -20970,17920 -38040,17920z"/>
   <path fill="white" d="M10555500 9561570c460,34560 14670,53880 38280,66580 5840,2930 11690,4700 17870,7500 42970,19310 86060,38370 129140,57300 41480,15510 72650,42960 133500,12960 14440,-6850 28870,-12960 43200,-19820 21660,-10030 43310,-20070 64970,-29980 7220,-3180 15010,-6360 22580,-9910 6870,-3190 14310,-7240 21080,-10040 22690,-9280 41940,-17030 50990,-43460 6990,-21600 -230,-91490 -1380,-122500 -6750,760 -29900,12460 -35870,15500 690,17420 1380,34700 2180,51980 810,16640 3900,36850 -2520,47520 -6760,11560 -18900,13850 -31740,20330 -46630,22240 -97050,43460 -143920,66080 -12380,6220 -27500,12450 -42170,12450 -24070,130 -56270,-19700 -78600,-28080 -30940,-13850 -61770,-27580 -92600,-41430 -15120,-7240 -43760,-16260 -52480,-27570 -7100,-9790 -5040,-31140 -5380,-47650 -340,-17280 -570,-34440 -800,-51720 -6190,-4070 -30370,-16390 -37580,-16770 460,30240 790,60480 1250,90730z"/>
   <path fill="white" d="M10679720 10424500c0,2920 1150,4070 4350,3940 13640,-250 27280,-510 40790,-890 -110,-20710 -230,-41300 -230,-62140 16390,-260 33010,-630 49510,-760 120,19310 230,38760 350,58070 0,3050 800,4060 3890,4060 13750,-120 27390,-370 41250,-500 -230,-52860 -460,-105850 -1040,-158710 -15000,250 -30020,380 -45020,510 110,19820 340,39510 570,59210 -16620,120 -33230,510 -49620,640 -120,-19700 -350,-39390 -460,-59220 -15010,380 -30140,510 -45030,900 350,51710 460,103300 690,154890z"/>
   <path fill="white" d="M10934900 10357410c-110,-17540 -3770,-49820 4930,-60100 7790,-9150 40570,-11060 40910,17910 120,16650 3670,47530 -4360,57810 -8700,11440 -41480,10430 -41480,-15620zm-46750 -40160c230,28210 -3320,57820 15930,78790 31050,33800 124210,32910 123880,-39400 -350,-35440 4570,-80180 -41950,-97710 -5960,-1900 -22000,-5470 -29560,-5590 -41490,250 -68640,24270 -68300,63910z"/>
   <path fill="white" d="M11164990 10399220c-15580,-1790 -25310,-9540 -25310,-27460 -350,-37100 -8020,-65310 24290,-62130 19590,1910 21430,18420 21760,30880 230,15250 9750,62010 -20740,58710zm-72530 -68370c230,29220 -3200,56170 16510,80690 21770,26940 78030,34820 103120,15380 22010,-15890 19370,-35200 20520,-55920 910,-18290 -120,-9660 -460,-23760 -690,-84000 -100490,-91870 -127660,-56540 -7330,9650 -12370,23250 -12030,40150z"/>
   <path fill="white" d="M10376060 10385230c0,20460 -36100,14230 -49740,8390 -8010,-3550 -12830,-8130 -19590,-12450 -3670,2930 -25090,24910 -25090,27700 0,5210 19940,15630 25210,17790 25210,9530 30020,8890 55340,9270 29570,390 60390,-19560 60390,-46250 0,-24390 -3100,-38750 -31970,-49810 -9280,-3690 -17990,-5460 -29680,-6990 -14780,-1900 -25670,-2920 -25670,-14360 0,-18040 31630,-10540 42060,-6860 5960,2040 11570,6480 17190,7630 3550,-2670 8020,-10300 11230,-14240 5040,-6350 9510,-9910 9970,-16510 -4930,-2420 -9860,-4960 -14790,-7630 -14890,-6990 -37920,-12450 -54770,-10290 -23140,2030 -45260,6860 -55000,30620 -8830,21090 -1950,45240 19710,58580 28300,17280 65200,7120 65200,25410z"/>
   <path fill="white" d="M10484920 10327670c110,33670 -5840,77640 33800,94670 28880,12320 70130,6100 89260,-18680 4360,-5710 5160,-9530 8370,-15630 -11570,-4320 -23030,-8770 -34490,-13080 -14440,-3820 -230,14990 -31970,15750 -12380,250 -18330,-11060 -18450,-22620 120,-14230 120,-28330 0,-42570 -110,-27700 30600,-30740 41480,-13220 2760,3950 2410,6230 9630,3310 37810,-14480 35510,-13090 27380,-25290 -26120,-41040 -102780,-32270 -118250,8650 -3090,7360 -6760,18290 -6760,28710z"/>
   <path fill="white" d="M11300450 10460970c39870,8390 79750,18040 119850,28850 7220,1770 3900,-14370 3670,-34700 0,-3040 -800,-4450 -4010,-5340 -24860,-6470 -49620,-12820 -74370,-18550 -460,-41930 -1040,-84120 -1950,-126180 -15120,-2660 -30140,-5340 -45260,-8000 1030,54640 1720,109280 2070,163920z"/>
  </g>
 </g>
</svg>
